<svg xmlns="http://www.w3.org/2000/svg" xmlns:xlink="http://www.w3.org/1999/xlink" width="940" zoomAndPan="magnify" viewBox="0 0 705 591.000005" height="788" preserveAspectRatio="xMidYMid meet" version="1.0"><defs><clipPath id="3187733560"><path d="M 123 130.800781 L 582.917969 130.800781 L 582.917969 459.496094 L 123 459.496094 Z M 123 130.800781 " clip-rule="nonzero"/></clipPath></defs><g clip-path="url(#3187733560)"><path fill="#00ffd0" d="M 556.269531 130.800781 C 553.347656 130.800781 550.425781 130.800781 547.503906 130.800781 L 151.65625 130.800781 C 138.875 130.800781 126.824219 138.105469 123.902344 151.253906 C 123.171875 156.730469 122.804688 162.210938 123.171875 167.6875 L 123.171875 422.972656 C 122.804688 429.183594 123.171875 435.390625 124.632812 441.234375 C 128.648438 453.285156 139.96875 459.496094 152.019531 459.496094 L 556.269531 459.496094 C 556.996094 459.496094 557.726562 459.128906 558.457031 458.765625 C 573.066406 457.304688 582.558594 445.25 582.558594 430.277344 L 582.558594 159.289062 C 582.558594 143.949219 571.96875 131.167969 556.269531 130.800781 Z M 132.300781 157.097656 C 132.664062 145.773438 141.429688 139.566406 152.019531 139.566406 L 518.289062 139.566406 C 530.707031 139.566406 543.488281 139.199219 555.902344 139.566406 C 566.859375 139.929688 573.796875 148.332031 573.796875 158.921875 L 573.796875 190.695312 L 183.058594 190.695312 C 165.894531 190.695312 149.097656 189.964844 132.300781 190.695312 C 131.933594 179.738281 131.933594 168.417969 132.300781 157.097656 Z M 573.429688 432.46875 C 573.429688 441.964844 565.761719 449.632812 555.902344 450 C 555.539062 450 555.171875 450 555.171875 450 L 153.84375 450 C 146.175781 450 138.507812 448.902344 134.492188 441.234375 C 131.570312 435.753906 132.300781 429.546875 132.300781 423.339844 L 132.300781 203.84375 C 132.300781 202.75 132.300781 201.289062 132.300781 200.191406 L 522.671875 200.191406 C 539.835938 200.191406 556.632812 200.921875 573.429688 200.191406 L 573.429688 428.816406 C 573.429688 429.914062 573.429688 431.375 573.429688 432.46875 Z M 573.429688 432.46875 " fill-opacity="1" fill-rule="nonzero"/></g><path fill="#00ffd0" d="M 162.976562 169.515625 C 162.976562 169.148438 162.609375 169.148438 162.976562 169.515625 Z M 162.976562 169.515625 " fill-opacity="1" fill-rule="nonzero"/><path fill="#00ffd0" d="M 180.867188 177.914062 C 183.425781 174.992188 184.519531 171.703125 184.519531 167.6875 C 184.519531 166.957031 184.519531 166.59375 184.519531 165.863281 C 183.789062 160.019531 179.773438 155.269531 174.296875 153.078125 C 168.453125 150.886719 161.515625 152.714844 157.496094 157.460938 C 152.019531 164.035156 152.75 173.53125 158.957031 179.375 C 165.53125 184.851562 175.027344 184.121094 180.867188 177.914062 Z M 175.390625 166.59375 C 175.390625 166.59375 175.390625 166.957031 175.390625 166.59375 C 175.390625 166.957031 175.390625 166.957031 175.390625 166.957031 C 175.390625 166.957031 175.390625 166.957031 175.390625 166.59375 Z M 162.609375 166.59375 C 162.609375 166.226562 162.609375 166.226562 162.609375 165.863281 C 162.609375 165.496094 162.976562 165.132812 162.976562 164.402344 L 163.339844 163.671875 L 163.707031 162.941406 C 164.070312 162.574219 164.4375 162.210938 164.800781 161.84375 L 165.164062 161.84375 C 164.800781 162.210938 165.164062 161.84375 165.53125 161.84375 C 165.894531 161.480469 166.625 161.480469 166.992188 161.113281 C 166.992188 161.113281 165.894531 161.480469 166.625 161.113281 L 167.355469 160.75 L 168.085938 160.75 C 168.085938 160.75 168.085938 160.75 168.453125 160.75 C 168.453125 160.75 168.816406 160.75 168.816406 160.75 L 169.914062 160.75 L 171.738281 161.113281 C 172.46875 161.480469 172.46875 161.480469 172.46875 161.480469 L 172.835938 161.84375 L 173.199219 162.210938 C 172.835938 161.84375 172.46875 161.84375 172.835938 162.210938 L 173.929688 163.304688 C 173.929688 163.671875 174.296875 163.671875 174.296875 164.035156 L 174.660156 164.765625 C 174.660156 165.132812 174.660156 165.496094 175.027344 165.496094 C 175.027344 165.863281 174.660156 166.226562 174.660156 166.59375 C 174.660156 166.957031 174.660156 166.957031 174.660156 167.324219 C 174.660156 167.6875 174.296875 168.417969 174.296875 168.785156 C 174.296875 168.785156 174.296875 169.148438 174.296875 169.148438 C 174.296875 169.148438 174.296875 169.148438 174.296875 169.515625 C 173.929688 169.878906 173.566406 170.609375 173.566406 170.972656 C 173.566406 170.972656 173.199219 171.339844 173.199219 171.339844 C 173.199219 171.339844 172.835938 171.703125 172.835938 171.703125 L 172.46875 171.703125 C 172.105469 172.070312 172.105469 172.070312 172.46875 171.703125 C 172.105469 172.070312 171.738281 172.070312 171.738281 172.433594 L 171.375 172.800781 L 169.546875 173.53125 C 169.183594 173.53125 169.183594 173.53125 168.816406 173.53125 L 167.355469 173.53125 C 166.992188 173.53125 166.625 173.53125 166.625 173.164062 L 165.894531 172.800781 C 165.164062 172.433594 166.261719 172.800781 166.261719 172.800781 C 166.261719 172.800781 165.164062 172.070312 165.164062 172.070312 L 164.4375 171.703125 C 164.4375 171.703125 163.339844 170.609375 163.339844 170.609375 L 162.976562 170.246094 L 162.976562 169.515625 C 162.976562 169.515625 162.976562 169.878906 162.976562 169.878906 C 162.976562 169.878906 162.609375 168.785156 162.609375 168.417969 Z M 162.609375 166.59375 " fill-opacity="1" fill-rule="nonzero"/><path fill="#00ffd0" d="M 217.386719 177.183594 C 219.578125 174.625 220.671875 171.339844 221.039062 168.054688 C 221.039062 167.6875 221.039062 167.6875 221.039062 167.324219 C 221.039062 167.324219 221.039062 166.957031 221.039062 166.957031 C 221.039062 160.382812 217.019531 154.539062 210.8125 152.347656 C 204.96875 150.15625 198.03125 151.984375 194.015625 156.730469 C 188.539062 163.304688 189.265625 172.800781 195.476562 178.644531 C 202.046875 184.488281 211.542969 183.757812 217.386719 177.183594 Z M 199.492188 166.59375 C 199.492188 166.226562 199.492188 166.226562 199.492188 165.863281 C 199.492188 165.496094 199.859375 165.132812 199.859375 164.402344 L 200.222656 163.671875 L 200.589844 162.941406 C 200.953125 162.574219 201.316406 162.210938 201.683594 161.84375 L 202.046875 161.84375 C 202.046875 161.84375 202.046875 161.84375 202.414062 161.84375 C 202.777344 161.480469 203.507812 161.480469 203.875 161.113281 C 203.875 161.113281 202.777344 161.480469 203.507812 161.113281 L 204.238281 160.75 L 204.96875 160.75 C 204.96875 160.75 204.96875 160.75 205.335938 160.75 C 205.335938 160.75 205.699219 160.75 205.699219 160.75 L 206.429688 160.75 L 208.257812 161.113281 C 208.988281 161.480469 208.988281 161.480469 208.988281 161.480469 C 208.988281 161.480469 209.351562 161.480469 209.351562 161.84375 C 209.351562 161.84375 209.351562 161.84375 209.71875 162.210938 L 210.8125 163.304688 C 210.8125 163.671875 211.179688 163.671875 211.179688 164.035156 L 211.542969 164.765625 C 211.910156 165.496094 211.910156 165.863281 211.910156 166.226562 C 211.910156 166.226562 211.910156 166.226562 211.910156 166.59375 C 211.910156 166.59375 211.910156 166.59375 211.910156 166.957031 C 211.910156 167.324219 211.910156 167.324219 211.910156 167.6875 C 211.910156 168.054688 211.542969 168.785156 211.542969 169.148438 C 211.542969 169.148438 211.542969 169.515625 211.542969 169.515625 C 211.542969 169.515625 211.542969 169.515625 211.542969 169.878906 L 210.8125 171.339844 C 210.8125 171.339844 210.449219 171.703125 210.449219 171.703125 L 210.082031 172.070312 C 209.71875 172.433594 209.71875 172.433594 210.082031 172.070312 C 209.71875 172.433594 209.351562 172.433594 209.351562 172.800781 L 208.988281 173.164062 L 206.796875 173.53125 C 206.429688 173.53125 206.429688 173.53125 206.066406 173.53125 L 203.507812 173.53125 L 202.777344 173.164062 C 202.046875 172.800781 203.144531 173.164062 203.144531 173.164062 C 203.144531 173.164062 202.046875 172.433594 202.046875 172.433594 C 202.046875 172.433594 201.683594 172.070312 201.316406 172.070312 C 201.316406 172.070312 200.222656 170.976562 200.222656 170.976562 L 199.859375 170.609375 L 200.222656 170.246094 L 200.222656 169.878906 C 200.222656 169.515625 199.859375 169.515625 200.222656 169.878906 C 200.222656 169.515625 199.859375 169.148438 199.859375 168.785156 C 199.859375 168.785156 199.859375 168.417969 199.859375 168.054688 C 199.492188 167.6875 199.492188 166.957031 199.492188 166.59375 Z M 199.492188 166.59375 " fill-opacity="1" fill-rule="nonzero"/><path fill="#00ffd0" d="M 199.492188 166.59375 C 199.859375 165.496094 199.492188 166.226562 199.492188 166.59375 Z M 199.492188 166.59375 " fill-opacity="1" fill-rule="nonzero"/><path fill="#00ffd0" d="M 255 177.914062 C 257.554688 174.992188 258.652344 171.703125 258.652344 167.6875 C 258.652344 166.957031 258.652344 166.59375 258.652344 165.863281 C 257.554688 160.019531 253.902344 155.269531 248.425781 153.078125 C 242.582031 150.886719 235.644531 152.714844 231.628906 157.460938 C 226.148438 164.035156 226.878906 173.53125 233.089844 179.375 C 239.296875 185.21875 249.15625 184.121094 255 177.914062 Z M 249.519531 166.59375 C 249.519531 166.59375 249.519531 166.957031 249.519531 166.59375 C 249.519531 166.957031 249.519531 166.957031 249.519531 166.957031 C 249.519531 166.957031 249.519531 166.957031 249.519531 166.59375 Z M 236.738281 166.59375 C 236.738281 166.59375 236.738281 166.226562 236.738281 165.863281 C 236.738281 165.496094 237.105469 164.765625 237.105469 164.402344 L 237.46875 163.671875 L 237.835938 162.941406 C 238.199219 162.574219 238.566406 162.210938 238.929688 161.84375 L 239.296875 161.84375 C 238.929688 162.210938 239.296875 161.84375 239.660156 161.84375 C 240.027344 161.480469 240.757812 161.480469 241.121094 161.113281 C 241.121094 161.113281 240.027344 161.480469 240.757812 161.113281 L 241.488281 160.75 L 242.21875 160.75 C 242.21875 160.75 242.21875 160.75 242.582031 160.75 C 242.582031 160.75 242.949219 160.75 242.949219 160.75 L 244.410156 160.75 L 246.234375 161.113281 C 246.964844 161.480469 246.964844 161.480469 246.964844 161.480469 L 247.332031 161.84375 C 247.332031 161.84375 247.332031 161.84375 247.695312 162.210938 L 248.789062 163.304688 C 248.789062 163.671875 249.15625 163.671875 249.15625 164.035156 C 249.15625 164.402344 249.519531 164.402344 249.519531 164.765625 C 249.519531 165.132812 249.886719 165.496094 249.886719 165.863281 C 249.886719 166.226562 249.519531 166.59375 249.519531 166.957031 C 249.519531 167.324219 249.519531 167.324219 249.519531 167.6875 C 249.519531 168.054688 249.15625 168.785156 249.15625 169.148438 C 249.15625 169.148438 249.15625 169.148438 249.15625 169.515625 C 248.789062 169.878906 248.425781 170.609375 248.425781 170.972656 C 248.425781 170.972656 248.058594 171.339844 248.058594 171.339844 C 248.058594 171.339844 247.695312 171.703125 247.695312 171.703125 C 247.332031 172.070312 247.332031 172.070312 247.695312 171.703125 C 247.332031 172.070312 246.964844 172.070312 246.964844 172.433594 L 246.601562 172.800781 L 243.679688 173.53125 C 243.3125 173.53125 243.3125 173.53125 242.949219 173.53125 L 241.488281 173.53125 L 240.757812 173.164062 L 240.027344 172.800781 C 239.296875 172.800781 240.390625 172.800781 240.390625 172.800781 C 240.390625 172.800781 239.296875 172.070312 239.296875 172.070312 L 238.566406 171.703125 C 238.566406 171.703125 237.835938 170.976562 237.46875 170.609375 L 237.105469 169.878906 L 237.46875 169.515625 C 237.46875 169.148438 237.105469 168.417969 237.105469 168.054688 L 237.105469 167.324219 C 236.738281 167.324219 236.738281 166.957031 236.738281 166.59375 Z M 236.738281 166.59375 " fill-opacity="1" fill-rule="nonzero"/><path fill="#00ffd0" d="M 243.679688 173.53125 C 243.679688 173.164062 242.949219 173.53125 243.679688 173.53125 Z M 243.679688 173.53125 " fill-opacity="1" fill-rule="nonzero"/><path fill="#00ffd0" d="M 236.738281 166.59375 C 237.105469 165.496094 236.738281 166.226562 236.738281 166.59375 Z M 236.738281 166.59375 " fill-opacity="1" fill-rule="nonzero"/><path fill="#00ffd0" d="M 406.546875 277.984375 C 402.894531 273.601562 396.320312 280.175781 399.972656 284.554688 L 435.394531 325.09375 L 399.972656 365.632812 C 395.957031 370.015625 402.527344 376.589844 406.546875 372.207031 L 444.890625 328.382812 C 446.714844 326.554688 446.714844 323.632812 444.890625 321.808594 Z M 406.546875 277.984375 " fill-opacity="1" fill-rule="nonzero"/><path fill="#00ffd0" d="M 299.183594 277.984375 L 261.207031 321.808594 C 259.382812 323.632812 259.382812 326.554688 261.207031 328.382812 L 299.183594 372.207031 C 303.203125 376.589844 309.410156 370.015625 305.757812 365.632812 L 270.335938 325.09375 L 305.757812 284.554688 C 309.773438 280.175781 303.203125 273.601562 299.183594 277.984375 Z M 299.183594 277.984375 " fill-opacity="1" fill-rule="nonzero"/><path fill="#00ffd0" d="M 370.757812 278.714844 L 332.78125 355.410156 L 327.304688 366.363281 C 324.746094 371.476562 332.414062 376.226562 335.335938 371.113281 L 373.679688 294.417969 L 379.15625 283.460938 C 380.984375 278.347656 373.316406 273.601562 370.757812 278.714844 Z M 370.757812 278.714844 " fill-opacity="1" fill-rule="nonzero"/></svg>