<svg xmlns="http://www.w3.org/2000/svg" xmlns:xlink="http://www.w3.org/1999/xlink" width="940" zoomAndPan="magnify" viewBox="0 0 705 591.000005" height="788" preserveAspectRatio="xMidYMid meet" version="1.0"><defs><clipPath id="5953ed38b0"><path d="M 175 168.261719 L 529.828125 168.261719 L 529.828125 422.082031 L 175 422.082031 Z M 175 168.261719 " clip-rule="nonzero"/></clipPath></defs><g clip-path="url(#5953ed38b0)"><path fill="#e7e7e8" d="M 509.289062 168.261719 C 507.035156 168.261719 504.785156 168.261719 502.53125 168.261719 L 197.445312 168.261719 C 187.59375 168.261719 178.304688 173.902344 176.054688 184.054688 C 175.492188 188.285156 175.210938 192.515625 175.492188 196.746094 L 175.492188 393.878906 C 175.210938 398.671875 175.492188 403.46875 176.617188 407.980469 C 179.710938 417.285156 188.4375 422.082031 197.726562 422.082031 L 509.285156 422.082031 C 509.851562 422.082031 510.414062 421.800781 510.976562 421.515625 C 522.234375 420.390625 529.550781 411.082031 529.550781 399.519531 L 529.550781 190.257812 C 529.550781 178.414062 521.390625 168.542969 509.289062 168.261719 Z M 182.527344 188.566406 C 182.808594 179.824219 189.5625 175.027344 197.726562 175.027344 L 480.015625 175.027344 C 489.585938 175.027344 499.4375 174.746094 509.003906 175.027344 C 517.449219 175.3125 522.796875 181.796875 522.796875 189.976562 L 522.796875 214.511719 L 221.648438 214.511719 C 208.421875 214.511719 195.472656 213.949219 182.527344 214.511719 C 182.246094 206.050781 182.246094 197.308594 182.527344 188.566406 Z M 522.515625 401.210938 C 522.515625 408.542969 516.605469 414.464844 509.003906 414.75 C 508.722656 414.75 508.441406 414.75 508.441406 414.75 L 199.132812 414.75 C 193.222656 414.75 187.3125 413.902344 184.214844 407.980469 C 181.964844 403.75 182.527344 398.957031 182.527344 394.160156 L 182.527344 224.664062 C 182.527344 223.820312 182.527344 222.691406 182.527344 221.84375 L 483.394531 221.84375 C 496.621094 221.84375 509.570312 222.410156 522.515625 221.84375 L 522.515625 398.390625 C 522.515625 399.238281 522.515625 400.367188 522.515625 401.210938 Z M 522.515625 401.210938 " fill-opacity="1" fill-rule="nonzero"/></g><path fill="#e7e7e8" d="M 206.167969 198.15625 C 206.167969 197.871094 205.886719 197.871094 206.167969 198.15625 Z M 206.167969 198.15625 " fill-opacity="1" fill-rule="nonzero"/><path fill="#e7e7e8" d="M 219.960938 204.640625 C 221.929688 202.386719 222.773438 199.847656 222.773438 196.746094 C 222.773438 196.179688 222.773438 195.898438 222.773438 195.335938 C 222.210938 190.824219 219.113281 187.15625 214.894531 185.464844 C 210.390625 183.773438 205.042969 185.183594 201.945312 188.847656 C 197.726562 193.925781 198.289062 201.257812 203.074219 205.769531 C 208.136719 210 215.457031 209.4375 219.960938 204.640625 Z M 215.738281 195.898438 C 215.738281 195.898438 215.738281 196.179688 215.738281 195.898438 C 215.738281 196.179688 215.738281 196.179688 215.738281 196.179688 C 215.738281 196.179688 215.738281 196.179688 215.738281 195.898438 Z M 205.886719 195.898438 C 205.886719 195.617188 205.886719 195.617188 205.886719 195.335938 C 205.886719 195.054688 206.167969 194.769531 206.167969 194.207031 L 206.449219 193.644531 L 206.730469 193.078125 C 207.011719 192.796875 207.292969 192.515625 207.574219 192.234375 L 207.855469 192.234375 C 207.574219 192.515625 207.855469 192.234375 208.136719 192.234375 C 208.421875 191.949219 208.984375 191.949219 209.265625 191.667969 C 209.265625 191.667969 208.421875 191.949219 208.984375 191.667969 L 209.546875 191.386719 L 210.109375 191.386719 C 210.109375 191.386719 210.109375 191.386719 210.390625 191.386719 C 210.390625 191.386719 210.671875 191.386719 210.671875 191.386719 L 211.515625 191.386719 L 212.921875 191.667969 C 213.484375 191.949219 213.484375 191.949219 213.484375 191.949219 L 213.765625 192.234375 L 214.050781 192.515625 C 213.765625 192.234375 213.484375 192.234375 213.765625 192.515625 L 214.613281 193.359375 C 214.613281 193.644531 214.894531 193.644531 214.894531 193.925781 L 215.175781 194.488281 C 215.175781 194.769531 215.175781 195.054688 215.457031 195.054688 C 215.457031 195.335938 215.175781 195.617188 215.175781 195.898438 C 215.175781 196.179688 215.175781 196.179688 215.175781 196.464844 C 215.175781 196.746094 214.894531 197.308594 214.894531 197.589844 C 214.894531 197.589844 214.894531 197.871094 214.894531 197.871094 C 214.894531 197.871094 214.894531 197.871094 214.894531 198.15625 C 214.613281 198.4375 214.332031 199 214.332031 199.28125 C 214.332031 199.28125 214.050781 199.566406 214.050781 199.566406 C 214.050781 199.566406 213.765625 199.847656 213.765625 199.847656 L 213.484375 199.847656 C 213.203125 200.128906 213.203125 200.128906 213.484375 199.847656 C 213.203125 200.128906 212.921875 200.128906 212.921875 200.410156 L 212.640625 200.691406 L 211.234375 201.257812 C 210.953125 201.257812 210.953125 201.257812 210.671875 201.257812 L 209.546875 201.257812 C 209.265625 201.257812 208.984375 201.257812 208.984375 200.976562 L 208.421875 200.691406 C 207.855469 200.410156 208.703125 200.691406 208.703125 200.691406 C 208.703125 200.691406 207.855469 200.128906 207.855469 200.128906 L 207.292969 199.847656 C 207.292969 199.847656 206.449219 199 206.449219 199 L 206.167969 198.71875 L 206.167969 198.15625 C 206.167969 198.15625 206.167969 198.4375 206.167969 198.4375 C 206.167969 198.4375 205.886719 197.589844 205.886719 197.308594 Z M 205.886719 195.898438 " fill-opacity="1" fill-rule="nonzero"/><path fill="#e7e7e8" d="M 248.105469 204.078125 C 249.792969 202.101562 250.636719 199.566406 250.917969 197.027344 C 250.917969 196.746094 250.917969 196.746094 250.917969 196.464844 C 250.917969 196.464844 250.917969 196.179688 250.917969 196.179688 C 250.917969 191.105469 247.824219 186.59375 243.039062 184.898438 C 238.535156 183.207031 233.1875 184.617188 230.089844 188.285156 C 225.871094 193.359375 226.433594 200.691406 231.21875 205.207031 C 236.285156 209.71875 243.601562 209.152344 248.105469 204.078125 Z M 234.3125 195.898438 C 234.3125 195.617188 234.3125 195.617188 234.3125 195.335938 C 234.3125 195.054688 234.59375 194.769531 234.59375 194.207031 L 234.875 193.644531 L 235.15625 193.078125 C 235.4375 192.796875 235.71875 192.515625 236 192.234375 L 236.285156 192.234375 C 236.285156 192.234375 236.285156 192.234375 236.566406 192.234375 C 236.847656 191.949219 237.410156 191.949219 237.691406 191.667969 C 237.691406 191.667969 236.847656 191.949219 237.410156 191.667969 L 237.972656 191.386719 L 238.535156 191.386719 C 238.535156 191.386719 238.535156 191.386719 238.816406 191.386719 C 238.816406 191.386719 239.097656 191.386719 239.097656 191.386719 L 239.660156 191.386719 L 241.066406 191.667969 C 241.628906 191.949219 241.628906 191.949219 241.628906 191.949219 C 241.628906 191.949219 241.914062 191.949219 241.914062 192.234375 C 241.914062 192.234375 241.914062 192.234375 242.195312 192.515625 L 243.039062 193.359375 C 243.039062 193.644531 243.320312 193.644531 243.320312 193.925781 L 243.601562 194.488281 C 243.882812 195.054688 243.882812 195.335938 243.882812 195.617188 C 243.882812 195.617188 243.882812 195.617188 243.882812 195.898438 C 243.882812 195.898438 243.882812 195.898438 243.882812 196.179688 C 243.882812 196.460938 243.882812 196.460938 243.882812 196.746094 C 243.882812 197.027344 243.601562 197.589844 243.601562 197.871094 C 243.601562 197.871094 243.601562 198.15625 243.601562 198.15625 C 243.601562 198.15625 243.601562 198.15625 243.601562 198.4375 L 243.039062 199.566406 C 243.039062 199.566406 242.757812 199.847656 242.757812 199.847656 L 242.476562 200.128906 C 242.195312 200.410156 242.195312 200.410156 242.476562 200.128906 C 242.195312 200.410156 241.914062 200.410156 241.914062 200.691406 L 241.628906 200.976562 L 239.941406 201.257812 C 239.660156 201.257812 239.660156 201.257812 239.378906 201.257812 L 237.410156 201.257812 L 236.847656 200.976562 C 236.285156 200.691406 237.128906 200.976562 237.128906 200.976562 C 237.128906 200.976562 236.285156 200.410156 236.285156 200.410156 C 236.285156 200.410156 236 200.128906 235.71875 200.128906 C 235.71875 200.128906 234.875 199.28125 234.875 199.28125 L 234.59375 199 L 234.875 198.71875 L 234.875 198.4375 C 234.875 198.15625 234.59375 198.15625 234.875 198.4375 C 234.875 198.15625 234.59375 197.875 234.59375 197.589844 C 234.59375 197.589844 234.59375 197.308594 234.59375 197.027344 C 234.3125 196.746094 234.3125 196.179688 234.3125 195.898438 Z M 234.3125 195.898438 " fill-opacity="1" fill-rule="nonzero"/><path fill="#e7e7e8" d="M 234.3125 195.898438 C 234.59375 195.054688 234.3125 195.617188 234.3125 195.898438 Z M 234.3125 195.898438 " fill-opacity="1" fill-rule="nonzero"/><path fill="#e7e7e8" d="M 277.09375 204.640625 C 279.0625 202.386719 279.90625 199.847656 279.90625 196.746094 C 279.90625 196.179688 279.90625 195.898438 279.90625 195.335938 C 279.0625 190.824219 276.25 187.15625 272.027344 185.464844 C 267.523438 183.773438 262.175781 185.183594 259.082031 188.847656 C 254.859375 193.925781 255.421875 201.257812 260.207031 205.769531 C 264.992188 210.28125 272.589844 209.4375 277.09375 204.640625 Z M 272.871094 195.898438 C 272.871094 195.898438 272.871094 196.179688 272.871094 195.898438 C 272.871094 196.179688 272.871094 196.179688 272.871094 196.179688 C 272.871094 196.179688 272.871094 196.179688 272.871094 195.898438 Z M 263.019531 195.898438 C 263.019531 195.898438 263.019531 195.617188 263.019531 195.335938 C 263.019531 195.054688 263.300781 194.488281 263.300781 194.207031 L 263.582031 193.644531 L 263.863281 193.078125 C 264.148438 192.796875 264.429688 192.515625 264.710938 192.234375 L 264.992188 192.234375 C 264.710938 192.515625 264.992188 192.234375 265.273438 192.234375 C 265.554688 191.949219 266.117188 191.949219 266.398438 191.667969 C 266.398438 191.667969 265.554688 191.949219 266.117188 191.667969 L 266.679688 191.386719 L 267.242188 191.386719 C 267.242188 191.386719 267.242188 191.386719 267.523438 191.386719 C 267.523438 191.386719 267.804688 191.386719 267.804688 191.386719 L 268.929688 191.386719 L 270.339844 191.667969 C 270.902344 191.949219 270.902344 191.949219 270.902344 191.949219 L 271.183594 192.234375 C 271.183594 192.234375 271.183594 192.234375 271.464844 192.515625 L 272.308594 193.359375 C 272.308594 193.644531 272.589844 193.644531 272.589844 193.925781 C 272.589844 194.207031 272.871094 194.207031 272.871094 194.488281 C 272.871094 194.769531 273.152344 195.054688 273.152344 195.335938 C 273.152344 195.617188 272.871094 195.898438 272.871094 196.179688 C 272.871094 196.460938 272.871094 196.460938 272.871094 196.746094 C 272.871094 197.027344 272.589844 197.589844 272.589844 197.871094 C 272.589844 197.871094 272.589844 197.871094 272.589844 198.15625 C 272.308594 198.4375 272.027344 199 272.027344 199.28125 C 272.027344 199.28125 271.746094 199.566406 271.746094 199.566406 C 271.746094 199.566406 271.464844 199.847656 271.464844 199.847656 C 271.183594 200.128906 271.183594 200.128906 271.464844 199.847656 C 271.183594 200.128906 270.902344 200.128906 270.902344 200.410156 L 270.621094 200.691406 L 268.367188 201.257812 C 268.085938 201.257812 268.085938 201.257812 267.804688 201.257812 L 266.679688 201.257812 L 266.117188 200.976562 L 265.554688 200.691406 C 264.992188 200.691406 265.835938 200.691406 265.835938 200.691406 C 265.835938 200.691406 264.992188 200.128906 264.992188 200.128906 L 264.429688 199.847656 C 264.429688 199.847656 263.863281 199.28125 263.582031 199 L 263.300781 198.4375 L 263.582031 198.15625 C 263.582031 197.875 263.300781 197.308594 263.300781 197.027344 L 263.300781 196.464844 C 263.019531 196.464844 263.019531 196.179688 263.019531 195.898438 Z M 263.019531 195.898438 " fill-opacity="1" fill-rule="nonzero"/><path fill="#e7e7e8" d="M 268.367188 201.257812 C 268.367188 200.976562 267.804688 201.257812 268.367188 201.257812 Z M 268.367188 201.257812 " fill-opacity="1" fill-rule="nonzero"/><path fill="#e7e7e8" d="M 263.019531 195.898438 C 263.300781 195.054688 263.019531 195.617188 263.019531 195.898438 Z M 263.019531 195.898438 " fill-opacity="1" fill-rule="nonzero"/><path fill="#e7e7e8" d="M 393.894531 281.914062 C 391.078125 278.53125 386.011719 283.609375 388.828125 286.992188 L 416.128906 318.296875 L 388.828125 349.601562 C 385.730469 352.984375 390.796875 358.0625 393.894531 354.675781 L 423.445312 320.835938 C 424.851562 319.425781 424.851562 317.167969 423.445312 315.757812 Z M 393.894531 281.914062 " fill-opacity="1" fill-rule="nonzero"/><path fill="#e7e7e8" d="M 311.148438 281.914062 L 281.878906 315.757812 C 280.46875 317.167969 280.46875 319.425781 281.878906 320.835938 L 311.148438 354.675781 C 314.246094 358.0625 319.027344 352.984375 316.214844 349.601562 L 288.914062 318.296875 L 316.214844 286.992188 C 319.308594 283.609375 314.246094 278.53125 311.148438 281.914062 Z M 311.148438 281.914062 " fill-opacity="1" fill-rule="nonzero"/><path fill="#e7e7e8" d="M 366.3125 282.480469 L 337.042969 341.703125 L 332.820312 350.164062 C 330.847656 354.113281 336.761719 357.78125 339.011719 353.832031 L 368.5625 294.605469 L 372.785156 286.144531 C 374.191406 282.199219 368.28125 278.53125 366.3125 282.480469 Z M 366.3125 282.480469 " fill-opacity="1" fill-rule="nonzero"/></svg>