<svg xmlns="http://www.w3.org/2000/svg" xmlns:xlink="http://www.w3.org/1999/xlink" width="500" zoomAndPan="magnify" viewBox="0 0 375 374.999991" height="500" preserveAspectRatio="xMidYMid meet" version="1.0"><defs><clipPath id="8513567f4c"><path d="M 58 58 L 317 58 L 317 316.746094 L 58 316.746094 Z M 58 58 " clip-rule="nonzero"/></clipPath></defs><rect x="-37.5" width="450" fill="#ffffff" y="-37.499999" height="449.999989" fill-opacity="1"/><rect x="-37.5" width="450" fill="#000000" y="-37.499999" height="449.999989" fill-opacity="1"/><g clip-path="url(#8513567f4c)"><path fill="#ffffff" d="M 63.296875 231.027344 C 66.011719 231.027344 68.214844 228.824219 68.214844 226.109375 L 68.214844 75.277344 L 151.714844 158.742188 C 153.640625 160.660156 156.753906 160.660156 158.675781 158.742188 C 160.59375 156.820312 160.59375 153.707031 158.675781 151.785156 L 66.773438 59.925781 C 65.367188 58.519531 63.253906 58.097656 61.414062 58.859375 C 59.578125 59.621094 58.378906 61.414062 58.378906 63.402344 L 58.378906 226.109375 C 58.378906 228.824219 60.578125 231.027344 63.296875 231.027344 Z M 311.824219 316.746094 C 314.539062 316.746094 316.742188 314.542969 316.742188 311.828125 L 316.742188 140.394531 C 316.742188 138.40625 315.542969 136.613281 313.707031 135.851562 C 311.867188 135.089844 309.75 135.511719 308.34375 136.917969 L 222.59375 222.636719 C 220.671875 224.554688 220.671875 227.667969 222.59375 229.585938 C 224.515625 231.507812 227.628906 231.507812 229.550781 229.585938 L 306.902344 152.265625 L 306.902344 311.828125 C 306.902344 314.542969 309.105469 316.746094 311.824219 316.746094 Z M 63.296875 316.746094 C 64.554688 316.746094 65.8125 316.265625 66.773438 315.304688 L 315.300781 66.878906 C 317.222656 64.960938 317.222656 61.847656 315.300781 59.925781 C 313.378906 58.003906 310.265625 58.003906 308.34375 59.925781 L 59.820312 308.351562 C 57.898438 310.269531 57.898438 313.382812 59.820312 315.304688 C 60.78125 316.265625 62.039062 316.746094 63.296875 316.746094 " fill-opacity="1" fill-rule="nonzero"/></g></svg>