<svg xmlns="http://www.w3.org/2000/svg" xmlns:xlink="http://www.w3.org/1999/xlink" width="80" zoomAndPan="magnify" viewBox="0 0 60 60" height="80" preserveAspectRatio="xMidYMid meet" version="1.0"><defs><g/><clipPath id="f68233c0e8"><path d="M 12.292969 12.339844 L 47.703125 12.339844 L 47.703125 47.964844 L 12.292969 47.964844 Z M 12.292969 12.339844 " clip-rule="nonzero"/></clipPath></defs><g clip-path="url(#f68233c0e8)"><path fill="#ffffff" d="M 12.832031 36.164062 C 13.203125 36.164062 13.507812 35.859375 13.507812 35.488281 L 13.507812 14.71875 L 24.96875 26.210938 C 25.230469 26.472656 25.660156 26.472656 25.921875 26.210938 C 26.1875 25.945312 26.1875 25.515625 25.921875 25.253906 L 13.308594 12.605469 C 13.117188 12.410156 12.824219 12.351562 12.574219 12.457031 C 12.320312 12.5625 12.15625 12.808594 12.15625 13.082031 L 12.15625 35.488281 C 12.15625 35.859375 12.457031 36.164062 12.832031 36.164062 Z M 46.945312 47.964844 C 47.316406 47.964844 47.621094 47.664062 47.621094 47.289062 L 47.621094 23.683594 C 47.621094 23.410156 47.457031 23.164062 47.203125 23.058594 C 46.949219 22.953125 46.660156 23.011719 46.46875 23.203125 L 34.695312 35.007812 C 34.433594 35.273438 34.433594 35.699219 34.695312 35.964844 C 34.960938 36.230469 35.386719 36.230469 35.652344 35.964844 L 46.269531 25.320312 L 46.269531 47.289062 C 46.269531 47.664062 46.570312 47.964844 46.945312 47.964844 Z M 12.832031 47.964844 C 13.003906 47.964844 13.175781 47.898438 13.308594 47.769531 L 47.421875 13.5625 C 47.6875 13.296875 47.6875 12.867188 47.421875 12.605469 C 47.160156 12.339844 46.730469 12.339844 46.46875 12.605469 L 12.355469 46.8125 C 12.089844 47.074219 12.089844 47.503906 12.355469 47.769531 C 12.488281 47.898438 12.660156 47.964844 12.832031 47.964844 " fill-opacity="1" fill-rule="nonzero"/></g><g fill="#fffbfa" fill-opacity="1"><g transform="translate(20.783626, 35.567473)"><g><path d="M 0.351562 -0.332031 C 0.488281 -0.46875 0.519531 -0.65625 0.429688 -0.816406 L 0.378906 -0.761719 C 0.441406 -0.636719 0.410156 -0.488281 0.304688 -0.382812 C 0.164062 -0.242188 -0.0351562 -0.242188 -0.183594 -0.390625 C -0.328125 -0.535156 -0.328125 -0.738281 -0.191406 -0.875 C -0.0859375 -0.980469 0.0546875 -1.011719 0.179688 -0.953125 L 0.230469 -1.003906 C 0.0742188 -1.085938 -0.109375 -1.058594 -0.242188 -0.925781 C -0.410156 -0.757812 -0.40625 -0.511719 -0.234375 -0.339844 C -0.0585938 -0.164062 0.183594 -0.164062 0.351562 -0.332031 Z M 0.351562 -0.332031 "/></g></g></g><g fill="#fffbfa" fill-opacity="1"><g transform="translate(21.783077, 34.568022)"><g><path d="M 0.09375 -0.09375 L 0.140625 -0.140625 L -0.0742188 -0.355469 L 0.0742188 -0.503906 L 0.445312 -0.445312 L 0.503906 -0.503906 L 0.128906 -0.566406 C 0.203125 -0.671875 0.195312 -0.792969 0.101562 -0.890625 C -0.0078125 -0.996094 -0.152344 -0.992188 -0.269531 -0.875 L -0.480469 -0.664062 Z M -0.121094 -0.40625 L -0.382812 -0.667969 L -0.226562 -0.824219 C -0.136719 -0.914062 -0.03125 -0.917969 0.0507812 -0.839844 C 0.132812 -0.757812 0.128906 -0.652344 0.0351562 -0.5625 Z M -0.121094 -0.40625 "/></g></g></g><g fill="#fffbfa" fill-opacity="1"><g transform="translate(22.669659, 33.68144)"><g><path d="M 0.09375 -0.09375 L 0.4375 -0.4375 L 0.390625 -0.484375 L 0.09375 -0.1875 L -0.125 -0.410156 L 0.140625 -0.675781 L 0.09375 -0.722656 L -0.171875 -0.457031 L -0.382812 -0.667969 L -0.0976562 -0.957031 L -0.144531 -1 L -0.480469 -0.664062 Z M 0.09375 -0.09375 "/></g></g></g><g fill="#fffbfa" fill-opacity="1"><g transform="translate(23.4949, 32.856199)"><g><path d="M 0.0195312 -0.0195312 L 0.0703125 -0.0703125 L -0.015625 -0.273438 L 0.285156 -0.570312 L 0.488281 -0.488281 L 0.539062 -0.539062 L -0.269531 -0.875 L -0.316406 -0.828125 Z M -0.0390625 -0.339844 L -0.226562 -0.785156 L 0.21875 -0.597656 Z M -0.0390625 -0.339844 "/></g></g></g><g fill="#fffbfa" fill-opacity="1"><g transform="translate(24.380665, 31.970434)"><g><path d="M 0.226562 -0.226562 L 0.277344 -0.277344 L -0.246094 -0.800781 L -0.0507812 -1 L -0.0976562 -1.046875 L -0.542969 -0.605469 L -0.492188 -0.554688 L -0.296875 -0.753906 Z M 0.226562 -0.226562 "/></g></g></g><g fill="#fffbfa" fill-opacity="1"><g transform="translate(25.214086, 31.137014)"><g><path d="M 0.09375 -0.09375 L 0.140625 -0.140625 L -0.429688 -0.714844 L -0.480469 -0.664062 Z M 0.09375 -0.09375 "/></g></g></g><g fill="#fffbfa" fill-opacity="1"><g transform="translate(25.77597, 30.57513)"><g><path d="M 0.246094 -0.246094 L 0.296875 -0.296875 L -0.046875 -1.097656 L -0.101562 -1.042969 L 0.0703125 -0.644531 L 0.203125 -0.339844 L -0.5 -0.644531 L -0.554688 -0.589844 Z M 0.246094 -0.246094 "/></g></g></g><g fill="#fffbfa" fill-opacity="1"><g transform="translate(26.645377, 29.705722)"><g><path d="M 0.09375 -0.09375 L 0.4375 -0.4375 L 0.390625 -0.484375 L 0.09375 -0.1875 L -0.125 -0.410156 L 0.140625 -0.675781 L 0.09375 -0.722656 L -0.171875 -0.457031 L -0.382812 -0.667969 L -0.0976562 -0.957031 L -0.144531 -1 L -0.480469 -0.664062 Z M 0.09375 -0.09375 "/></g></g></g><g fill="#fffbfa" fill-opacity="1"><g transform="translate(27.470618, 28.880481)"><g/></g></g><g fill="#fffbfa" fill-opacity="1"><g transform="translate(28.016962, 28.334138)"><g><path d="M 0.09375 -0.09375 L 0.273438 -0.273438 C 0.457031 -0.457031 0.457031 -0.683594 0.285156 -0.855469 C 0.113281 -1.03125 -0.117188 -1.027344 -0.300781 -0.84375 L -0.480469 -0.664062 Z M 0.09375 -0.191406 L -0.382812 -0.667969 L -0.253906 -0.796875 C -0.101562 -0.949219 0.0898438 -0.953125 0.234375 -0.804688 C 0.378906 -0.660156 0.378906 -0.472656 0.226562 -0.320312 Z M 0.09375 -0.191406 "/></g></g></g><g fill="#fffbfa" fill-opacity="1"><g transform="translate(28.967339, 27.383761)"><g><path d="M 0.09375 -0.09375 L 0.140625 -0.140625 L -0.429688 -0.714844 L -0.480469 -0.664062 Z M 0.09375 -0.09375 "/></g></g></g><g fill="#fffbfa" fill-opacity="1"><g transform="translate(29.529223, 26.821877)"><g><path d="M 0.351562 -0.332031 C 0.527344 -0.503906 0.511719 -0.75 0.328125 -0.929688 L 0.0234375 -0.625 L 0.0703125 -0.578125 L 0.324219 -0.832031 C 0.4375 -0.695312 0.4375 -0.515625 0.304688 -0.382812 C 0.160156 -0.242188 -0.0351562 -0.242188 -0.183594 -0.390625 C -0.328125 -0.535156 -0.332031 -0.734375 -0.191406 -0.875 C -0.0898438 -0.976562 0.0429688 -1.003906 0.164062 -0.957031 L 0.21875 -1.007812 C 0.0703125 -1.082031 -0.109375 -1.054688 -0.242188 -0.921875 C -0.410156 -0.753906 -0.40625 -0.511719 -0.234375 -0.339844 C -0.0585938 -0.164062 0.183594 -0.160156 0.351562 -0.332031 Z M 0.351562 -0.332031 "/></g></g></g><g fill="#fffbfa" fill-opacity="1"><g transform="translate(30.536852, 25.814247)"><g><path d="M 0.09375 -0.09375 L 0.140625 -0.140625 L -0.429688 -0.714844 L -0.480469 -0.664062 Z M 0.09375 -0.09375 "/></g></g></g><g fill="#fffbfa" fill-opacity="1"><g transform="translate(31.098736, 25.252363)"><g><path d="M 0.226562 -0.226562 L 0.277344 -0.277344 L -0.246094 -0.800781 L -0.0507812 -1 L -0.0976562 -1.046875 L -0.542969 -0.605469 L -0.492188 -0.554688 L -0.296875 -0.753906 Z M 0.226562 -0.226562 "/></g></g></g><g fill="#fffbfa" fill-opacity="1"><g transform="translate(31.932157, 24.418943)"><g><path d="M 0.0195312 -0.0195312 L 0.0703125 -0.0703125 L -0.015625 -0.273438 L 0.285156 -0.570312 L 0.488281 -0.488281 L 0.539062 -0.539062 L -0.269531 -0.875 L -0.316406 -0.828125 Z M -0.0390625 -0.339844 L -0.226562 -0.785156 L 0.21875 -0.597656 Z M -0.0390625 -0.339844 "/></g></g></g><g fill="#fffbfa" fill-opacity="1"><g transform="translate(32.817922, 23.533177)"><g><path d="M 0.09375 -0.09375 L 0.433594 -0.433594 L 0.386719 -0.480469 L 0.09375 -0.191406 L -0.429688 -0.714844 L -0.480469 -0.664062 Z M 0.09375 -0.09375 "/></g></g></g><g fill="#fffbfa" fill-opacity="1"><g transform="translate(33.605541, 22.745559)"><g/></g></g><g fill="#fffbfa" fill-opacity="1"><g transform="translate(34.151884, 22.199215)"><g><path d="M 0.0195312 -0.0195312 L 0.0703125 -0.0703125 L -0.015625 -0.273438 L 0.285156 -0.570312 L 0.488281 -0.488281 L 0.539062 -0.539062 L -0.269531 -0.875 L -0.316406 -0.828125 Z M -0.0390625 -0.339844 L -0.226562 -0.785156 L 0.21875 -0.597656 Z M -0.0390625 -0.339844 "/></g></g></g><g fill="#fffbfa" fill-opacity="1"><g transform="translate(35.037649, 21.31345)"><g><path d="M 0.351562 -0.332031 C 0.527344 -0.503906 0.511719 -0.75 0.328125 -0.929688 L 0.0234375 -0.625 L 0.0703125 -0.578125 L 0.324219 -0.832031 C 0.4375 -0.695312 0.4375 -0.515625 0.304688 -0.382812 C 0.160156 -0.242188 -0.0351562 -0.242188 -0.183594 -0.390625 C -0.328125 -0.535156 -0.332031 -0.734375 -0.191406 -0.875 C -0.0898438 -0.976562 0.0429688 -1.003906 0.164062 -0.957031 L 0.21875 -1.007812 C 0.0703125 -1.082031 -0.109375 -1.054688 -0.242188 -0.921875 C -0.410156 -0.753906 -0.40625 -0.511719 -0.234375 -0.339844 C -0.0585938 -0.164062 0.183594 -0.160156 0.351562 -0.332031 Z M 0.351562 -0.332031 "/></g></g></g><g fill="#fffbfa" fill-opacity="1"><g transform="translate(36.045279, 20.305821)"><g><path d="M 0.09375 -0.09375 L 0.4375 -0.4375 L 0.390625 -0.484375 L 0.09375 -0.1875 L -0.125 -0.410156 L 0.140625 -0.675781 L 0.09375 -0.722656 L -0.171875 -0.457031 L -0.382812 -0.667969 L -0.0976562 -0.957031 L -0.144531 -1 L -0.480469 -0.664062 Z M 0.09375 -0.09375 "/></g></g></g><g fill="#fffbfa" fill-opacity="1"><g transform="translate(36.87052, 19.480579)"><g><path d="M 0.09375 -0.09375 L 0.140625 -0.140625 L -0.347656 -0.628906 L 0.488281 -0.488281 L 0.535156 -0.535156 L -0.0351562 -1.109375 L -0.0859375 -1.058594 L 0.402344 -0.574219 L -0.433594 -0.710938 L -0.480469 -0.664062 Z M 0.09375 -0.09375 "/></g></g></g><g fill="#fffbfa" fill-opacity="1"><g transform="translate(37.826623, 18.524477)"><g><path d="M 0.351562 -0.332031 C 0.488281 -0.46875 0.519531 -0.65625 0.429688 -0.816406 L 0.378906 -0.761719 C 0.441406 -0.636719 0.410156 -0.488281 0.304688 -0.382812 C 0.164062 -0.242188 -0.0351562 -0.242188 -0.183594 -0.390625 C -0.328125 -0.535156 -0.328125 -0.738281 -0.191406 -0.875 C -0.0859375 -0.980469 0.0546875 -1.011719 0.179688 -0.953125 L 0.230469 -1.003906 C 0.0742188 -1.085938 -0.109375 -1.058594 -0.242188 -0.925781 C -0.410156 -0.757812 -0.40625 -0.511719 -0.234375 -0.339844 C -0.0585938 -0.164062 0.183594 -0.164062 0.351562 -0.332031 Z M 0.351562 -0.332031 "/></g></g></g><g fill="#fffbfa" fill-opacity="1"><g transform="translate(38.826074, 17.525026)"><g><path d="M 0.234375 -0.234375 L 0.285156 -0.285156 L 0.0703125 -0.496094 L -0.0703125 -1.074219 L -0.128906 -1.015625 L -0.00390625 -0.523438 L -0.496094 -0.648438 L -0.554688 -0.589844 L 0.0234375 -0.445312 Z M 0.234375 -0.234375 "/></g></g></g></svg>