<svg xmlns="http://www.w3.org/2000/svg" xmlns:xlink="http://www.w3.org/1999/xlink" width="520" zoomAndPan="magnify" viewBox="0 0 390 389.999986" height="520" preserveAspectRatio="xMidYMid meet" version="1.0"><defs><g/><clipPath id="798903ce9d"><path d="M 55.605469 56 L 334 56 L 334 336.441406 L 55.605469 336.441406 Z M 55.605469 56 " clip-rule="nonzero"/></clipPath></defs><g clip-path="url(#798903ce9d)"><path fill="#ffffff" d="M 59.839844 243.523438 C 62.777344 243.523438 65.15625 241.136719 65.15625 238.195312 L 65.15625 74.6875 L 155.386719 165.164062 C 157.464844 167.246094 160.832031 167.246094 162.90625 165.164062 C 164.980469 163.082031 164.980469 159.707031 162.90625 157.625 L 63.597656 58.046875 C 62.078125 56.523438 59.792969 56.066406 57.804688 56.890625 C 55.820312 57.71875 54.523438 59.660156 54.523438 61.816406 L 54.523438 238.195312 C 54.523438 241.136719 56.902344 243.523438 59.839844 243.523438 Z M 328.398438 336.441406 C 331.335938 336.441406 333.714844 334.054688 333.714844 331.113281 L 333.714844 145.277344 C 333.714844 143.121094 332.421875 141.175781 330.433594 140.351562 C 328.445312 139.527344 326.160156 139.984375 324.640625 141.507812 L 231.976562 234.425781 C 229.902344 236.507812 229.902344 239.882812 231.976562 241.960938 C 234.054688 244.046875 237.417969 244.046875 239.496094 241.960938 L 323.082031 158.144531 L 323.082031 331.113281 C 323.082031 334.054688 325.464844 336.441406 328.398438 336.441406 Z M 59.839844 336.441406 C 61.199219 336.441406 62.5625 335.921875 63.597656 334.878906 L 332.160156 65.585938 C 334.234375 63.503906 334.234375 60.128906 332.160156 58.046875 C 330.082031 55.964844 326.71875 55.964844 324.640625 58.046875 L 56.082031 327.34375 C 54.007812 329.421875 54.007812 332.800781 56.082031 334.878906 C 57.121094 335.921875 58.480469 336.441406 59.839844 336.441406 " fill-opacity="1" fill-rule="nonzero"/></g><g fill="#fffbfa" fill-opacity="1"><g transform="translate(122.442999, 238.830594)"><g><path d="M 2.78125 -2.613281 C 3.84375 -3.675781 4.089844 -5.171875 3.394531 -6.417969 L 2.980469 -6.007812 C 3.476562 -5.007812 3.238281 -3.855469 2.394531 -3.011719 C 1.292969 -1.914062 -0.289062 -1.914062 -1.441406 -3.066406 C -2.59375 -4.21875 -2.59375 -5.800781 -1.492188 -6.902344 C -0.667969 -7.726562 0.4375 -7.957031 1.410156 -7.5 L 1.820312 -7.914062 C 0.578125 -8.5625 -0.863281 -8.320312 -1.894531 -7.289062 C -3.21875 -5.960938 -3.214844 -4.039062 -1.839844 -2.664062 C -0.46875 -1.292969 1.457031 -1.289062 2.78125 -2.613281 Z M 2.78125 -2.613281 "/></g></g></g><g fill="#fffbfa" fill-opacity="1"><g transform="translate(130.311296, 230.962297)"><g><path d="M 0.726562 -0.726562 L 1.121094 -1.121094 L -0.574219 -2.8125 L 0.59375 -3.980469 L 3.496094 -3.496094 L 3.964844 -3.964844 L 1.015625 -4.46875 C 1.601562 -5.300781 1.539062 -6.253906 0.792969 -7 C -0.0625 -7.855469 -1.203125 -7.808594 -2.113281 -6.902344 L -3.78125 -5.234375 Z M -0.945312 -3.1875 L -3.011719 -5.253906 L -1.777344 -6.492188 C -1.0625 -7.203125 -0.246094 -7.238281 0.394531 -6.601562 C 1.035156 -5.957031 1.003906 -5.136719 0.289062 -4.421875 Z M -0.945312 -3.1875 "/></g></g></g><g fill="#fffbfa" fill-opacity="1"><g transform="translate(137.291022, 223.982571)"><g><path d="M 0.726562 -0.726562 L 3.453125 -3.453125 L 3.085938 -3.816406 L 0.753906 -1.488281 L -0.996094 -3.238281 L 1.09375 -5.332031 L 0.734375 -5.691406 L -1.359375 -3.597656 L -3.019531 -5.261719 L -0.761719 -7.519531 L -1.125 -7.886719 L -3.78125 -5.234375 Z M 0.726562 -0.726562 "/></g></g></g><g fill="#fffbfa" fill-opacity="1"><g transform="translate(143.787831, 217.485762)"><g><path d="M 0.140625 -0.140625 L 0.558594 -0.558594 L -0.109375 -2.15625 L 2.234375 -4.5 L 3.835938 -3.835938 L 4.25 -4.25 L -2.125 -6.890625 L -2.5 -6.515625 Z M -0.316406 -2.671875 L -1.777344 -6.167969 L 1.726562 -4.714844 Z M -0.316406 -2.671875 "/></g></g></g><g fill="#fffbfa" fill-opacity="1"><g transform="translate(150.761121, 210.512472)"><g><path d="M 1.796875 -1.796875 L 2.183594 -2.183594 L -1.949219 -6.316406 L -0.394531 -7.875 L -0.765625 -8.25 L -4.261719 -4.75 L -3.890625 -4.378906 L -2.335938 -5.929688 Z M 1.796875 -1.796875 "/></g></g></g><g fill="#fffbfa" fill-opacity="1"><g transform="translate(157.322323, 203.95127)"><g><path d="M 0.726562 -0.726562 L 1.121094 -1.121094 L -3.386719 -5.628906 L -3.78125 -5.234375 Z M 0.726562 -0.726562 "/></g></g></g><g fill="#fffbfa" fill-opacity="1"><g transform="translate(161.745821, 199.527772)"><g><path d="M 1.949219 -1.949219 L 2.324219 -2.324219 L -0.378906 -8.632812 L -0.792969 -8.222656 L 0.558594 -5.066406 L 1.597656 -2.679688 L -3.945312 -5.066406 L -4.367188 -4.648438 Z M 1.949219 -1.949219 "/></g></g></g><g fill="#fffbfa" fill-opacity="1"><g transform="translate(168.590334, 192.68326)"><g><path d="M 0.726562 -0.726562 L 3.453125 -3.453125 L 3.085938 -3.816406 L 0.753906 -1.488281 L -0.996094 -3.238281 L 1.09375 -5.332031 L 0.734375 -5.691406 L -1.359375 -3.597656 L -3.019531 -5.261719 L -0.761719 -7.519531 L -1.125 -7.886719 L -3.78125 -5.234375 Z M 0.726562 -0.726562 "/></g></g></g><g fill="#fffbfa" fill-opacity="1"><g transform="translate(175.087144, 186.186449)"><g/></g></g><g fill="#fffbfa" fill-opacity="1"><g transform="translate(179.388297, 181.885296)"><g><path d="M 0.726562 -0.726562 L 2.152344 -2.152344 C 3.585938 -3.585938 3.597656 -5.390625 2.242188 -6.746094 C 0.882812 -8.105469 -0.921875 -8.09375 -2.355469 -6.65625 L -3.78125 -5.234375 Z M 0.746094 -1.492188 L -3.011719 -5.253906 L -1.996094 -6.269531 C -0.792969 -7.476562 0.695312 -7.496094 1.839844 -6.347656 C 2.988281 -5.203125 2.976562 -3.722656 1.777344 -2.523438 Z M 0.746094 -1.492188 "/></g></g></g><g fill="#fffbfa" fill-opacity="1"><g transform="translate(186.870256, 174.403337)"><g><path d="M 0.726562 -0.726562 L 1.121094 -1.121094 L -3.386719 -5.628906 L -3.78125 -5.234375 Z M 0.726562 -0.726562 "/></g></g></g><g fill="#fffbfa" fill-opacity="1"><g transform="translate(191.293754, 169.979839)"><g><path d="M 2.773438 -2.609375 C 4.148438 -3.980469 4.039062 -5.917969 2.59375 -7.332031 L 0.179688 -4.917969 L 0.554688 -4.546875 L 2.550781 -6.542969 C 3.453125 -5.472656 3.4375 -4.054688 2.390625 -3.007812 C 1.273438 -1.894531 -0.289062 -1.914062 -1.441406 -3.066406 C -2.59375 -4.21875 -2.621094 -5.777344 -1.5 -6.894531 C -0.695312 -7.699219 0.335938 -7.90625 1.289062 -7.519531 L 1.710938 -7.945312 C 0.546875 -8.53125 -0.871094 -8.3125 -1.914062 -7.269531 C -3.230469 -5.949219 -3.207031 -4.03125 -1.839844 -2.664062 C -0.476562 -1.300781 1.441406 -1.273438 2.773438 -2.609375 Z M 2.773438 -2.609375 "/></g></g></g><g fill="#fffbfa" fill-opacity="1"><g transform="translate(199.226438, 162.047155)"><g><path d="M 0.726562 -0.726562 L 1.121094 -1.121094 L -3.386719 -5.628906 L -3.78125 -5.234375 Z M 0.726562 -0.726562 "/></g></g></g><g fill="#fffbfa" fill-opacity="1"><g transform="translate(203.649936, 157.623657)"><g><path d="M 1.796875 -1.796875 L 2.183594 -2.183594 L -1.949219 -6.316406 L -0.394531 -7.875 L -0.765625 -8.25 L -4.261719 -4.75 L -3.890625 -4.378906 L -2.335938 -5.929688 Z M 1.796875 -1.796875 "/></g></g></g><g fill="#fffbfa" fill-opacity="1"><g transform="translate(210.21114, 151.062453)"><g><path d="M 0.140625 -0.140625 L 0.558594 -0.558594 L -0.109375 -2.15625 L 2.234375 -4.5 L 3.835938 -3.835938 L 4.25 -4.25 L -2.125 -6.890625 L -2.5 -6.515625 Z M -0.316406 -2.671875 L -1.777344 -6.167969 L 1.726562 -4.714844 Z M -0.316406 -2.671875 "/></g></g></g><g fill="#fffbfa" fill-opacity="1"><g transform="translate(217.184432, 144.089161)"><g><path d="M 0.726562 -0.726562 L 3.40625 -3.40625 L 3.03125 -3.78125 L 0.746094 -1.492188 L -3.386719 -5.628906 L -3.78125 -5.234375 Z M 0.726562 -0.726562 "/></g></g></g><g fill="#fffbfa" fill-opacity="1"><g transform="translate(223.385055, 137.888538)"><g/></g></g><g fill="#fffbfa" fill-opacity="1"><g transform="translate(227.686208, 133.587385)"><g><path d="M 0.140625 -0.140625 L 0.558594 -0.558594 L -0.109375 -2.15625 L 2.234375 -4.5 L 3.835938 -3.835938 L 4.25 -4.25 L -2.125 -6.890625 L -2.5 -6.515625 Z M -0.316406 -2.671875 L -1.777344 -6.167969 L 1.726562 -4.714844 Z M -0.316406 -2.671875 "/></g></g></g><g fill="#fffbfa" fill-opacity="1"><g transform="translate(234.659501, 126.614092)"><g><path d="M 2.773438 -2.609375 C 4.148438 -3.980469 4.039062 -5.917969 2.59375 -7.332031 L 0.179688 -4.917969 L 0.554688 -4.546875 L 2.550781 -6.542969 C 3.453125 -5.472656 3.4375 -4.054688 2.390625 -3.007812 C 1.273438 -1.894531 -0.289062 -1.914062 -1.441406 -3.066406 C -2.59375 -4.21875 -2.621094 -5.777344 -1.5 -6.894531 C -0.695312 -7.699219 0.335938 -7.90625 1.289062 -7.519531 L 1.710938 -7.945312 C 0.546875 -8.53125 -0.871094 -8.3125 -1.914062 -7.269531 C -3.230469 -5.949219 -3.207031 -4.03125 -1.839844 -2.664062 C -0.476562 -1.300781 1.441406 -1.273438 2.773438 -2.609375 Z M 2.773438 -2.609375 "/></g></g></g><g fill="#fffbfa" fill-opacity="1"><g transform="translate(242.592185, 118.681409)"><g><path d="M 0.726562 -0.726562 L 3.453125 -3.453125 L 3.085938 -3.816406 L 0.753906 -1.488281 L -0.996094 -3.238281 L 1.09375 -5.332031 L 0.734375 -5.691406 L -1.359375 -3.597656 L -3.019531 -5.261719 L -0.761719 -7.519531 L -1.125 -7.886719 L -3.78125 -5.234375 Z M 0.726562 -0.726562 "/></g></g></g><g fill="#fffbfa" fill-opacity="1"><g transform="translate(249.088995, 112.184598)"><g><path d="M 0.726562 -0.726562 L 1.113281 -1.113281 L -2.722656 -4.953125 L 3.855469 -3.855469 L 4.222656 -4.222656 L -0.285156 -8.730469 L -0.667969 -8.34375 L 3.160156 -4.511719 L -3.414062 -5.601562 L -3.78125 -5.234375 Z M 0.726562 -0.726562 "/></g></g></g><g fill="#fffbfa" fill-opacity="1"><g transform="translate(256.616026, 104.657568)"><g><path d="M 2.78125 -2.613281 C 3.84375 -3.675781 4.089844 -5.171875 3.394531 -6.417969 L 2.980469 -6.007812 C 3.476562 -5.007812 3.238281 -3.855469 2.394531 -3.011719 C 1.292969 -1.914062 -0.289062 -1.914062 -1.441406 -3.066406 C -2.59375 -4.21875 -2.59375 -5.800781 -1.492188 -6.902344 C -0.667969 -7.726562 0.4375 -7.957031 1.410156 -7.5 L 1.820312 -7.914062 C 0.578125 -8.5625 -0.863281 -8.320312 -1.894531 -7.289062 C -3.21875 -5.960938 -3.214844 -4.039062 -1.839844 -2.664062 C -0.46875 -1.292969 1.457031 -1.289062 2.78125 -2.613281 Z M 2.78125 -2.613281 "/></g></g></g><g fill="#fffbfa" fill-opacity="1"><g transform="translate(264.484324, 96.789269)"><g><path d="M 1.847656 -1.847656 L 2.234375 -2.234375 L 0.566406 -3.902344 L -0.566406 -8.449219 L -1.011719 -8.003906 L -0.0273438 -4.121094 L -3.914062 -5.097656 L -4.367188 -4.648438 L 0.191406 -3.503906 Z M 1.847656 -1.847656 "/></g></g></g></svg>