<svg xmlns="http://www.w3.org/2000/svg" xmlns:xlink="http://www.w3.org/1999/xlink" width="520" zoomAndPan="magnify" viewBox="0 0 390 389.999986" height="520" preserveAspectRatio="xMidYMid meet" version="1.0"><defs><clipPath id="f954c97d9e"><path d="M 87 86.1875 L 310.949219 86.1875 L 310.949219 309.6875 L 87 309.6875 Z M 87 86.1875 " clip-rule="nonzero"/></clipPath></defs><g clip-path="url(#f954c97d9e)"><path fill="#ffffff" d="M 91.433594 235.648438 C 93.78125 235.648438 95.683594 233.746094 95.683594 231.398438 L 95.683594 101.113281 L 167.839844 173.207031 C 169.503906 174.867188 172.191406 174.867188 173.855469 173.207031 C 175.511719 171.550781 175.511719 168.859375 173.855469 167.203125 L 94.4375 87.855469 C 93.222656 86.640625 91.394531 86.277344 89.804688 86.933594 C 88.21875 87.59375 87.183594 89.140625 87.183594 90.859375 L 87.183594 231.398438 C 87.183594 233.746094 89.085938 235.648438 91.433594 235.648438 Z M 306.195312 309.6875 C 308.542969 309.6875 310.445312 307.785156 310.445312 305.441406 L 310.445312 157.363281 C 310.445312 155.644531 309.410156 154.09375 307.820312 153.4375 C 306.234375 152.78125 304.40625 153.144531 303.1875 154.355469 L 229.085938 228.398438 C 227.429688 230.054688 227.429688 232.746094 229.085938 234.402344 C 230.75 236.0625 233.441406 236.0625 235.101562 234.402344 L 301.945312 167.613281 L 301.945312 305.441406 C 301.945312 307.785156 303.847656 309.6875 306.195312 309.6875 Z M 91.433594 309.6875 C 92.519531 309.6875 93.609375 309.273438 94.4375 308.441406 L 309.199219 93.859375 C 310.863281 92.203125 310.863281 89.511719 309.199219 87.855469 C 307.539062 86.195312 304.851562 86.195312 303.1875 87.855469 L 88.429688 302.4375 C 86.769531 304.09375 86.769531 306.785156 88.429688 308.441406 C 89.257812 309.273438 90.347656 309.6875 91.433594 309.6875 " fill-opacity="1" fill-rule="nonzero"/></g></svg>