<svg xmlns="http://www.w3.org/2000/svg" xmlns:xlink="http://www.w3.org/1999/xlink" width="500" zoomAndPan="magnify" viewBox="0 0 375 374.999991" height="500" preserveAspectRatio="xMidYMid meet" version="1.0"><defs><clipPath id="05f271b0ce"><path d="M 38.496094 38.496094 L 336.246094 38.496094 L 336.246094 336.246094 L 38.496094 336.246094 Z M 38.496094 38.496094 " clip-rule="nonzero"/></clipPath></defs><g clip-path="url(#05f271b0ce)"><path fill="#04dfb6" d="M 336.246094 290.96875 C 336.246094 315.957031 315.992188 336.210938 291.007812 336.210938 L 83.753906 336.210938 C 58.765625 336.210938 38.507812 315.957031 38.507812 290.96875 L 38.507812 83.71875 C 38.507812 58.730469 58.765625 38.472656 83.753906 38.472656 L 291.003906 38.472656 C 315.992188 38.472656 336.246094 58.730469 336.246094 83.71875 Z M 336.246094 290.96875 " fill-opacity="1" fill-rule="nonzero"/></g><path fill="#ffffff" d="M 235.792969 210.476562 L 240.605469 173.144531 L 203.636719 173.144531 L 203.636719 149.308594 C 203.636719 138.5 206.652344 131.136719 222.148438 131.136719 L 241.902344 131.125 L 241.902344 97.738281 C 238.492188 97.28125 226.765625 96.265625 213.101562 96.265625 C 184.597656 96.265625 165.09375 113.664062 165.09375 145.617188 L 165.09375 173.144531 L 132.855469 173.144531 L 132.855469 210.476562 L 165.09375 210.476562 L 165.09375 306.265625 L 203.636719 306.265625 L 203.636719 210.476562 Z M 235.792969 210.476562 " fill-opacity="1" fill-rule="nonzero"/></svg>