<svg xmlns="http://www.w3.org/2000/svg" xmlns:xlink="http://www.w3.org/1999/xlink" width="500" zoomAndPan="magnify" viewBox="0 0 375 374.999991" height="500" preserveAspectRatio="xMidYMid meet" version="1.0"><defs><clipPath id="5afbcac369"><path d="M 37.5 37.5 L 337.5 37.5 L 337.5 337.5 L 37.5 337.5 Z M 37.5 37.5 " clip-rule="nonzero"/></clipPath></defs><g clip-path="url(#5afbcac369)"><path fill="#04dfb6" d="M 125.710938 37.5 C 77.289062 37.5 37.5 77.238281 37.5 125.710938 L 37.5 249.289062 C 37.5 297.710938 77.238281 337.5 125.710938 337.5 L 249.289062 337.5 C 297.710938 337.5 337.5 297.761719 337.5 249.289062 L 337.5 125.710938 C 337.5 77.289062 297.761719 37.5 249.289062 37.5 Z M 125.710938 64.773438 L 249.289062 64.773438 C 283.007812 64.773438 310.226562 91.992188 310.226562 125.710938 L 310.226562 249.289062 C 310.226562 283.007812 283.007812 310.226562 249.289062 310.226562 L 125.710938 310.226562 C 91.992188 310.226562 64.773438 283.007812 64.773438 249.289062 L 64.773438 125.710938 C 64.773438 91.992188 91.992188 64.773438 125.710938 64.773438 Z M 268.039062 94.601562 C 261.167969 94.601562 255.683594 100.089844 255.683594 106.960938 C 255.683594 113.832031 261.167969 119.316406 268.039062 119.316406 C 274.910156 119.316406 280.398438 113.832031 280.398438 106.960938 C 280.398438 100.089844 274.910156 94.601562 268.039062 94.601562 Z M 187.5 105.683594 C 142.488281 105.683594 105.683594 142.488281 105.683594 187.5 C 105.683594 232.511719 142.488281 269.316406 187.5 269.316406 C 232.511719 269.316406 269.316406 232.511719 269.316406 187.5 C 269.316406 142.488281 232.511719 105.683594 187.5 105.683594 Z M 187.5 132.953125 C 217.808594 132.953125 242.046875 157.191406 242.046875 187.5 C 242.046875 217.808594 217.808594 242.046875 187.5 242.046875 C 157.191406 242.046875 132.953125 217.808594 132.953125 187.5 C 132.953125 157.191406 157.191406 132.953125 187.5 132.953125 Z M 187.5 132.953125 " fill-opacity="1" fill-rule="nonzero"/></g></svg>