<svg xmlns="http://www.w3.org/2000/svg" xmlns:xlink="http://www.w3.org/1999/xlink" width="500" zoomAndPan="magnify" viewBox="0 0 375 374.999991" height="500" preserveAspectRatio="xMidYMid meet" version="1.0"><defs><clipPath id="7e87783098"><path d="M 39.496094 38.496094 L 337.246094 38.496094 L 337.246094 336.246094 L 39.496094 336.246094 Z M 39.496094 38.496094 " clip-rule="nonzero"/></clipPath></defs><g clip-path="url(#7e87783098)"><path fill="#04dfb6" d="M 337.246094 290.976562 C 337.246094 315.960938 316.988281 336.21875 292 336.21875 L 84.75 336.21875 C 59.761719 336.21875 39.507812 315.960938 39.507812 290.976562 L 39.507812 83.722656 C 39.507812 58.734375 59.761719 38.480469 84.75 38.480469 L 292 38.480469 C 316.988281 38.480469 337.246094 58.734375 337.246094 83.722656 Z M 337.246094 290.976562 " fill-opacity="1" fill-rule="nonzero"/></g><path fill="#ffffff" d="M 157.238281 144.703125 C 157.238281 145.433594 157.203125 146.160156 157.132812 146.882812 C 157.058594 147.609375 156.953125 148.328125 156.8125 149.042969 C 156.667969 149.757812 156.492188 150.464844 156.28125 151.160156 C 156.070312 151.859375 155.824219 152.542969 155.546875 153.214844 C 155.265625 153.890625 154.957031 154.546875 154.613281 155.1875 C 154.269531 155.832031 153.894531 156.457031 153.492188 157.0625 C 153.085938 157.667969 152.652344 158.25 152.191406 158.816406 C 151.726562 159.378906 151.238281 159.917969 150.722656 160.433594 C 150.210938 160.945312 149.671875 161.4375 149.105469 161.898438 C 148.542969 162.359375 147.960938 162.792969 147.355469 163.199219 C 146.75 163.601562 146.125 163.976562 145.480469 164.320312 C 144.839844 164.664062 144.179688 164.976562 143.507812 165.253906 C 142.835938 165.53125 142.148438 165.777344 141.453125 165.988281 C 140.757812 166.199219 140.050781 166.378906 139.335938 166.519531 C 138.621094 166.660156 137.902344 166.769531 137.175781 166.839844 C 136.453125 166.910156 135.726562 166.945312 134.996094 166.945312 C 134.269531 166.945312 133.542969 166.910156 132.816406 166.839844 C 132.089844 166.769531 131.371094 166.660156 130.65625 166.519531 C 129.941406 166.378906 129.238281 166.199219 128.539062 165.988281 C 127.84375 165.777344 127.15625 165.53125 126.484375 165.253906 C 125.8125 164.976562 125.15625 164.664062 124.511719 164.320312 C 123.871094 163.976562 123.246094 163.601562 122.640625 163.199219 C 122.035156 162.792969 121.449219 162.359375 120.886719 161.898438 C 120.324219 161.4375 119.785156 160.945312 119.269531 160.433594 C 118.753906 159.917969 118.265625 159.378906 117.804688 158.816406 C 117.339844 158.25 116.90625 157.667969 116.503906 157.0625 C 116.097656 156.457031 115.722656 155.832031 115.382812 155.1875 C 115.039062 154.546875 114.726562 153.890625 114.449219 153.214844 C 114.167969 152.542969 113.925781 151.859375 113.710938 151.160156 C 113.5 150.464844 113.324219 149.757812 113.183594 149.042969 C 113.039062 148.328125 112.933594 147.609375 112.863281 146.882812 C 112.789062 146.160156 112.753906 145.433594 112.753906 144.703125 C 112.753906 143.976562 112.789062 143.25 112.863281 142.523438 C 112.933594 141.800781 113.039062 141.078125 113.183594 140.367188 C 113.324219 139.652344 113.5 138.945312 113.710938 138.25 C 113.925781 137.550781 114.167969 136.867188 114.449219 136.191406 C 114.726562 135.519531 115.039062 134.863281 115.382812 134.21875 C 115.722656 133.578125 116.097656 132.953125 116.503906 132.347656 C 116.90625 131.742188 117.339844 131.15625 117.804688 130.59375 C 118.265625 130.03125 118.753906 129.492188 119.269531 128.976562 C 119.785156 128.460938 120.324219 127.972656 120.886719 127.511719 C 121.449219 127.050781 122.035156 126.617188 122.640625 126.210938 C 123.246094 125.804688 123.871094 125.433594 124.511719 125.089844 C 125.15625 124.746094 125.8125 124.433594 126.484375 124.15625 C 127.15625 123.875 127.84375 123.632812 128.539062 123.421875 C 129.238281 123.207031 129.941406 123.03125 130.65625 122.890625 C 131.371094 122.746094 132.089844 122.640625 132.816406 122.570312 C 133.542969 122.5 134.269531 122.460938 134.996094 122.460938 C 135.726562 122.460938 136.453125 122.5 137.175781 122.570312 C 137.902344 122.640625 138.621094 122.746094 139.335938 122.890625 C 140.050781 123.03125 140.757812 123.207031 141.453125 123.421875 C 142.148438 123.632812 142.835938 123.875 143.507812 124.15625 C 144.179688 124.433594 144.839844 124.746094 145.480469 125.089844 C 146.125 125.433594 146.75 125.804688 147.355469 126.210938 C 147.960938 126.617188 148.542969 127.050781 149.105469 127.511719 C 149.671875 127.972656 150.210938 128.460938 150.722656 128.976562 C 151.238281 129.492188 151.726562 130.03125 152.191406 130.59375 C 152.652344 131.15625 153.085938 131.742188 153.492188 132.347656 C 153.894531 132.953125 154.269531 133.578125 154.613281 134.21875 C 154.957031 134.863281 155.265625 135.519531 155.546875 136.191406 C 155.824219 136.867188 156.070312 137.550781 156.28125 138.25 C 156.492188 138.945312 156.667969 139.652344 156.8125 140.367188 C 156.953125 141.078125 157.058594 141.800781 157.132812 142.523438 C 157.203125 143.25 157.238281 143.976562 157.238281 144.703125 Z M 157.238281 144.703125 " fill-opacity="1" fill-rule="nonzero"/><path fill="#ffffff" d="M 115.824219 183.34375 L 154.035156 183.34375 L 154.035156 306.269531 L 115.824219 306.269531 Z M 115.824219 183.34375 " fill-opacity="1" fill-rule="nonzero"/><path fill="#ffffff" d="M 178.066406 183.34375 L 214.4375 183.34375 L 214.4375 306.269531 L 178.066406 306.269531 Z M 178.066406 183.34375 " fill-opacity="1" fill-rule="nonzero"/><path fill="#ffffff" d="M 179.636719 248.792969 L 216.007812 248.792969 L 216.007812 306.269531 L 179.636719 306.269531 Z M 179.636719 248.792969 " fill-opacity="1" fill-rule="nonzero"/><path fill="#ffffff" d="M 216.007812 248.792969 C 216.007812 248.792969 215.4375 232.847656 219.644531 224.558594 C 219.644531 224.558594 223.847656 214.351562 237.066406 214.289062 C 237.066406 214.289062 252.566406 211.582031 257.011719 226.964844 C 257.011719 226.964844 258.695312 235.492188 258.695312 239.101562 C 258.695312 242.707031 258.816406 306.269531 258.816406 306.269531 L 296.90625 306.269531 L 296.90625 235.855469 C 296.90625 235.855469 299.667969 196.082031 275.796875 185.1875 C 275.796875 185.1875 236.542969 167.5625 215.238281 199.925781 C 215.238281 199.925781 210.589844 203.128906 209.949219 194.15625 C 209.308594 185.1875 203.859375 207.9375 203.699219 208.417969 C 203.539062 208.898438 209.949219 253.757812 209.949219 253.757812 Z M 216.007812 248.792969 " fill-opacity="1" fill-rule="nonzero"/></svg>