<svg xmlns="http://www.w3.org/2000/svg" xmlns:xlink="http://www.w3.org/1999/xlink" width="500" zoomAndPan="magnify" viewBox="0 0 375 374.999991" height="500" preserveAspectRatio="xMidYMid meet" version="1.0"><defs><clipPath id="403cd83513"><path d="M 48.929688 38.496094 L 326.429688 38.496094 L 326.429688 336.246094 L 48.929688 336.246094 Z M 48.929688 38.496094 " clip-rule="nonzero"/></clipPath><clipPath id="dbe0e69bcb"><path d="M 48.929688 38.496094 L 183 38.496094 L 183 179 L 48.929688 179 Z M 48.929688 38.496094 " clip-rule="nonzero"/></clipPath><clipPath id="acde29fba7"><path d="M 193 195 L 326.429688 195 L 326.429688 336.246094 L 193 336.246094 Z M 193 195 " clip-rule="nonzero"/></clipPath></defs><g clip-path="url(#403cd83513)"><path fill="#04dfb6" d="M 313.980469 45.6875 L 230.804688 180.933594 L 176.308594 260.976562 L 173.902344 264.800781 L 174.039062 265.035156 L 171.390625 269.441406 L 171.035156 269.804688 L 169.011719 271.839844 L 169.011719 273.425781 L 135.660156 329.050781 L 61.390625 329.050781 L 144.605469 193.75 L 198.867188 113.746094 L 201.261719 109.914062 L 201.117188 109.675781 L 209.914062 94.933594 L 210.277344 94.582031 L 212.429688 92.527344 L 212.429688 90.738281 L 239.351562 45.695312 L 313.980469 45.695312 M 326.441406 38.730469 L 235.386719 38.730469 L 205.453125 88.820312 L 205.453125 89.558594 L 204.402344 90.5625 L 192.992188 109.6875 L 193.089844 109.847656 L 138.738281 189.984375 L 48.929688 336.007812 L 139.613281 336.007812 L 175.980469 275.34375 L 175.980469 274.703125 L 176.933594 273.742188 L 182.160156 265.039062 L 182.066406 264.886719 L 236.648438 184.707031 Z M 326.441406 38.730469 " fill-opacity="1" fill-rule="nonzero"/></g><g clip-path="url(#dbe0e69bcb)"><path fill="#04dfb6" d="M 135.660156 45.6875 L 173.808594 109.300781 L 135.375 165.972656 L 100.339844 109.003906 L 100.273438 108.898438 L 100.203125 108.789062 L 99.964844 108.429688 L 61.386719 45.6875 L 135.660156 45.6875 M 139.613281 38.730469 L 48.929688 38.730469 L 94.089844 112.175781 L 94.398438 112.644531 L 135.089844 178.808594 L 182.070312 109.53125 Z M 139.613281 38.730469 " fill-opacity="1" fill-rule="nonzero"/></g><g clip-path="url(#acde29fba7)"><path fill="#04dfb6" d="M 239.976562 208.730469 L 313.980469 329.046875 L 239.34375 329.046875 L 201.351562 265.457031 L 239.976562 208.730469 M 240.273438 195.917969 L 193.09375 265.21875 L 235.386719 336.011719 L 326.441406 336.011719 Z M 240.273438 195.917969 " fill-opacity="1" fill-rule="nonzero"/></g></svg>