<svg xmlns="http://www.w3.org/2000/svg" xmlns:xlink="http://www.w3.org/1999/xlink" width="500" zoomAndPan="magnify" viewBox="0 0 375 374.999991" height="500" preserveAspectRatio="xMidYMid meet" version="1.0"><defs><clipPath id="2437d66941"><path d="M 0 22.03125 L 374 22.03125 L 374 277 L 0 277 Z M 0 22.03125 " clip-rule="nonzero"/></clipPath><clipPath id="c864117533"><path d="M 263 302 L 315 302 L 315 352.78125 L 263 352.78125 Z M 263 302 " clip-rule="nonzero"/></clipPath><clipPath id="a66337a5af"><path d="M 119 302 L 170 302 L 170 352.78125 L 119 352.78125 Z M 119 302 " clip-rule="nonzero"/></clipPath></defs><path fill="#00ffd0" d="M 209.496094 216.230469 C 209.785156 216.230469 210.078125 216.523438 210.367188 216.523438 C 211.535156 216.523438 212.699219 215.648438 213.28125 214.484375 L 220.566406 194.101562 C 221.148438 192.648438 220.273438 190.898438 218.816406 190.316406 C 217.359375 189.734375 215.613281 190.609375 215.03125 192.066406 L 207.746094 212.445312 C 207.164062 214.191406 208.039062 215.648438 209.496094 216.230469 Z M 209.496094 216.230469 " fill-opacity="1" fill-rule="nonzero"/><path fill="#00ffd0" d="M 202.503906 172.265625 L 183.277344 181.292969 C 181.820312 181.875 181.238281 183.914062 181.820312 185.367188 C 182.402344 186.53125 183.277344 187.113281 184.441406 187.113281 C 184.734375 187.113281 185.316406 187.113281 185.605469 186.824219 L 204.832031 177.796875 C 206.289062 177.214844 206.871094 175.179688 206.289062 173.722656 C 205.707031 172.265625 203.960938 171.683594 202.503906 172.265625 Z M 202.503906 172.265625 " fill-opacity="1" fill-rule="nonzero"/><path fill="#00ffd0" d="M 209.203125 153.050781 C 209.785156 151.59375 208.910156 149.847656 207.457031 149.265625 L 187.355469 141.988281 C 185.898438 141.402344 184.148438 142.277344 183.566406 143.734375 C 182.984375 145.1875 183.859375 146.9375 185.316406 147.519531 L 205.417969 154.796875 C 205.707031 154.796875 206 155.089844 206.582031 155.089844 C 207.746094 155.089844 208.621094 154.214844 209.203125 153.050781 Z M 209.203125 153.050781 " fill-opacity="1" fill-rule="nonzero"/><path fill="#00ffd0" d="M 224.351562 140.820312 C 224.644531 140.820312 225.226562 140.820312 225.515625 140.53125 C 226.972656 139.949219 227.554688 137.910156 226.972656 136.453125 L 217.941406 116.945312 C 217.359375 115.492188 215.320312 114.910156 213.863281 115.492188 C 212.699219 116.074219 212.117188 118.113281 212.699219 119.566406 L 221.730469 139.074219 C 222.3125 139.949219 223.1875 140.820312 224.351562 140.820312 Z M 224.351562 140.820312 " fill-opacity="1" fill-rule="nonzero"/><path fill="#00ffd0" d="M 247.367188 143.441406 C 248.53125 143.441406 249.695312 142.570312 250.277344 141.402344 L 257.5625 121.023438 C 258.144531 119.566406 257.269531 117.820312 255.8125 117.238281 C 254.359375 116.65625 252.609375 117.53125 252.027344 118.984375 L 244.742188 139.367188 C 244.160156 140.820312 245.035156 142.570312 246.492188 143.152344 C 246.492188 143.441406 246.785156 143.441406 247.367188 143.441406 Z M 247.367188 143.441406 " fill-opacity="1" fill-rule="nonzero"/><path fill="#00ffd0" d="M 261.347656 161.785156 C 261.640625 161.785156 262.222656 161.785156 262.515625 161.492188 L 281.742188 152.46875 C 283.199219 151.886719 283.78125 149.847656 283.199219 148.390625 C 282.617188 146.9375 280.574219 146.355469 279.121094 146.9375 L 259.890625 155.960938 C 258.4375 156.542969 257.851562 158.582031 258.4375 160.039062 C 259.308594 160.910156 260.476562 161.785156 261.347656 161.785156 Z M 261.347656 161.785156 " fill-opacity="1" fill-rule="nonzero"/><g clip-path="url(#2437d66941)"><path fill="#00ffd0" d="M 342.335938 79.097656 L 89.761719 79.097656 C 81.023438 38.042969 57.136719 35.425781 55.097656 35.132812 L 36.742188 35.132812 C 33.828125 28.144531 27.128906 22.03125 18.972656 22.03125 C 8.484375 22.03125 0.0351562 30.476562 0.0351562 40.957031 C 0.0351562 51.4375 8.484375 60.171875 18.972656 60.171875 C 27.128906 60.171875 33.828125 53.765625 36.742188 46.777344 L 53.929688 46.777344 C 54.511719 46.777344 70.535156 51.730469 76.652344 85.210938 C 84.519531 129.757812 104.910156 241.5625 104.910156 241.5625 C 104.910156 254.082031 112.484375 276.789062 140.453125 276.789062 L 248.238281 276.789062 L 243.871094 265.433594 L 140.160156 265.433594 C 128.214844 265.433594 122.972656 256.699219 120.640625 250.585938 C 139.578125 249.421875 191.433594 245.929688 237.167969 242.726562 L 233.089844 228.457031 C 186.480469 231.660156 134.917969 235.15625 118.3125 236.320312 C 114.523438 217.394531 100.25 137.035156 92.382812 93.363281 L 340.296875 93.363281 C 351.65625 93.363281 359.816406 102.679688 358.359375 114.035156 L 347.871094 199.632812 C 347.871094 199.925781 347.578125 201.671875 346.414062 204.003906 L 359.230469 210.40625 C 361.5625 205.457031 362.144531 201.964844 362.144531 201.382812 L 372.925781 113.453125 C 374.964844 94.527344 361.5625 79.097656 342.335938 79.097656 Z M 342.335938 79.097656 " fill-opacity="1" fill-rule="nonzero"/></g><path fill="#00ffd0" d="M 313.785156 234.574219 L 338.257812 224.964844 C 340.585938 224.089844 342.042969 222.054688 342.042969 219.722656 C 342.042969 217.394531 340.878906 215.066406 338.839844 213.902344 L 235.714844 161.785156 C 233.675781 160.621094 231.050781 160.910156 229.011719 162.660156 C 227.265625 164.113281 226.390625 166.734375 227.265625 169.0625 L 262.222656 281.738281 C 262.804688 284.070312 265.136719 285.816406 267.46875 286.105469 C 269.796875 286.398438 272.128906 284.941406 273.292969 282.90625 L 287.277344 256.117188 L 317.28125 296.007812 C 318.15625 297.171875 319.613281 298.042969 321.359375 298.335938 C 321.652344 298.335938 321.945312 298.335938 322.234375 298.335938 C 323.398438 298.335938 324.855469 298.042969 326.023438 297.171875 L 344.375 282.90625 C 345.539062 282.03125 346.414062 280.574219 346.707031 278.828125 C 346.996094 277.082031 346.414062 275.625 345.539062 274.167969 Z M 323.109375 283.777344 L 291.0625 241.269531 C 289.898438 239.8125 288.152344 238.941406 286.402344 238.941406 C 286.109375 238.941406 286.109375 238.941406 285.820312 238.941406 C 283.78125 239.230469 282.03125 240.394531 280.867188 242.144531 L 269.214844 264.5625 L 242.703125 179.253906 L 321.070312 218.851562 L 301.84375 226.421875 C 300.09375 227.003906 298.636719 228.75 298.347656 230.496094 C 297.765625 232.242188 298.347656 234.28125 299.511719 235.738281 L 332.140625 277.082031 Z M 323.109375 283.777344 " fill-opacity="1" fill-rule="nonzero"/><g clip-path="url(#c864117533)"><path fill="#00ffd0" d="M 289.023438 302.121094 C 275.332031 302.121094 263.972656 313.476562 263.972656 327.449219 C 263.972656 341.425781 275.332031 352.78125 289.023438 352.78125 C 302.714844 352.78125 314.078125 341.425781 314.078125 327.449219 C 314.078125 313.476562 302.714844 302.121094 289.023438 302.121094 Z M 289.023438 340.554688 C 281.742188 340.554688 275.914062 334.730469 275.914062 327.449219 C 275.914062 320.171875 281.742188 314.347656 289.023438 314.347656 C 296.308594 314.347656 302.132812 320.171875 302.132812 327.449219 C 302.132812 334.4375 296.308594 340.554688 289.023438 340.554688 Z M 289.023438 340.554688 " fill-opacity="1" fill-rule="nonzero"/></g><g clip-path="url(#a66337a5af)"><path fill="#00ffd0" d="M 144.820312 302.121094 C 131.128906 302.121094 119.769531 313.476562 119.769531 327.449219 C 119.769531 341.425781 131.128906 352.78125 144.820312 352.78125 C 158.515625 352.78125 169.875 341.425781 169.875 327.449219 C 169.875 313.476562 158.515625 302.121094 144.820312 302.121094 Z M 144.820312 340.554688 C 137.539062 340.554688 131.710938 334.730469 131.710938 327.449219 C 131.710938 320.171875 137.539062 314.347656 144.820312 314.347656 C 152.105469 314.347656 157.929688 320.171875 157.929688 327.449219 C 157.929688 334.4375 152.105469 340.554688 144.820312 340.554688 Z M 144.820312 340.554688 " fill-opacity="1" fill-rule="nonzero"/></g></svg>