<svg xmlns="http://www.w3.org/2000/svg" xmlns:xlink="http://www.w3.org/1999/xlink" width="500" zoomAndPan="magnify" viewBox="0 0 375 374.999991" height="500" preserveAspectRatio="xMidYMid meet" version="1.0"><defs><clipPath id="d7ebb65aaf"><path d="M 70 29 L 304 29 L 304 362.671875 L 70 362.671875 Z M 70 29 " clip-rule="nonzero"/></clipPath><clipPath id="717b931dfe"><path d="M 70 29 L 305 29 L 305 362.671875 L 70 362.671875 Z M 70 29 " clip-rule="nonzero"/></clipPath></defs><rect x="-37.5" width="450" fill="#ffffff" y="-37.499999" height="449.999989" fill-opacity="1"/><rect x="-37.5" width="450" fill="#ffffff" y="-37.499999" height="449.999989" fill-opacity="1"/><path fill="#0f046a" d="M 187.5 276.929688 C 83.179688 276.929688 1.503906 241.339844 1.503906 196.039062 C 1.503906 150.742188 83.179688 115.152344 187.5 115.152344 C 291.820312 115.152344 373.496094 150.742188 373.496094 196.039062 C 373.496094 241.339844 291.820312 276.929688 187.5 276.929688 Z M 187.5 131.328125 C 85.605469 131.328125 17.679688 164.492188 17.679688 196.039062 C 17.679688 227.585938 85.605469 260.75 187.5 260.75 C 289.394531 260.75 357.320312 227.585938 357.320312 196.039062 C 357.320312 164.492188 289.394531 131.328125 187.5 131.328125 Z M 187.5 131.328125 " fill-opacity="1" fill-rule="nonzero"/><g clip-path="url(#d7ebb65aaf)"><path fill="#0f046a" d="M 115.527344 362.671875 C 107.441406 362.671875 100.972656 361.054688 94.503906 357.007812 C 54.878906 334.359375 65.390625 246.191406 117.144531 155.59375 C 141.40625 113.535156 171.328125 77.941406 200.4375 55.292969 C 231.976562 31.027344 260.28125 23.746094 279.6875 35.070312 C 299.90625 46.394531 307.183594 74.707031 302.332031 114.34375 C 297.480469 151.550781 281.304688 195.230469 257.046875 237.292969 C 232.785156 279.355469 202.863281 314.949219 173.753906 337.597656 C 152.726562 353.773438 132.511719 362.671875 115.527344 362.671875 Z M 259.472656 45.585938 C 246.535156 45.585938 229.550781 52.867188 210.953125 67.425781 C 183.457031 89.265625 155.152344 123.238281 131.703125 163.683594 C 80.753906 251.855469 75.902344 327.890625 102.589844 343.257812 C 116.335938 351.347656 138.980469 344.066406 164.046875 324.652344 C 191.542969 302.8125 219.847656 268.839844 243.296875 228.394531 C 266.75 187.953125 282.113281 146.699219 286.96875 111.914062 C 291.011719 79.558594 286.160156 56.910156 272.410156 48.820312 C 268.367188 47.203125 264.324219 45.585938 259.472656 45.585938 Z M 259.472656 45.585938 " fill-opacity="1" fill-rule="nonzero"/></g><g clip-path="url(#717b931dfe)"><path fill="#0f046a" d="M 260.28125 362.671875 C 219.847656 362.671875 161.621094 313.328125 117.953125 236.484375 C 65.390625 145.890625 54.878906 57.71875 94.503906 35.070312 C 134.128906 12.421875 205.289062 65 257.855469 155.59375 C 282.113281 197.65625 298.289062 241.339844 303.140625 278.546875 C 308.800781 318.183594 300.714844 345.683594 280.496094 357.820312 C 274.027344 361.054688 267.558594 362.671875 260.28125 362.671875 Z M 102.589844 48.820312 C 75.902344 64.191406 80.753906 140.226562 131.703125 228.394531 C 182.648438 316.566406 245.722656 358.628906 272.410156 343.257812 C 286.160156 335.167969 291.011719 312.519531 286.96875 280.164062 C 282.113281 245.382812 266.75 204.128906 243.296875 163.683594 C 192.351562 75.515625 129.277344 33.453125 102.589844 48.820312 Z M 102.589844 48.820312 " fill-opacity="1" fill-rule="nonzero"/></g><path fill="#0f046a" d="M 219.847656 196.039062 C 219.847656 197.101562 219.796875 198.15625 219.691406 199.210938 C 219.585938 200.265625 219.433594 201.3125 219.226562 202.351562 C 219.019531 203.390625 218.761719 204.417969 218.453125 205.433594 C 218.148438 206.445312 217.789062 207.441406 217.382812 208.421875 C 216.980469 209.402344 216.527344 210.359375 216.027344 211.292969 C 215.527344 212.226562 214.984375 213.136719 214.394531 214.015625 C 213.808594 214.898438 213.175781 215.746094 212.503906 216.566406 C 211.832031 217.386719 211.121094 218.167969 210.371094 218.917969 C 209.625 219.667969 208.839844 220.378906 208.019531 221.050781 C 207.203125 221.722656 206.351562 222.355469 205.472656 222.941406 C 204.589844 223.53125 203.683594 224.074219 202.75 224.574219 C 201.8125 225.074219 200.855469 225.527344 199.878906 225.933594 C 198.898438 226.339844 197.902344 226.695312 196.890625 227.003906 C 195.875 227.308594 194.851562 227.566406 193.8125 227.773438 C 192.773438 227.980469 191.726562 228.136719 190.671875 228.238281 C 189.617188 228.34375 188.558594 228.394531 187.5 228.394531 C 186.441406 228.394531 185.382812 228.34375 184.328125 228.238281 C 183.273438 228.136719 182.226562 227.980469 181.1875 227.773438 C 180.148438 227.566406 179.125 227.308594 178.109375 227.003906 C 177.097656 226.695312 176.101562 226.339844 175.121094 225.933594 C 174.140625 225.527344 173.1875 225.074219 172.25 224.574219 C 171.316406 224.074219 170.410156 223.53125 169.527344 222.941406 C 168.648438 222.355469 167.796875 221.722656 166.980469 221.050781 C 166.160156 220.378906 165.375 219.667969 164.628906 218.917969 C 163.878906 218.167969 163.167969 217.386719 162.496094 216.566406 C 161.824219 215.746094 161.191406 214.898438 160.605469 214.015625 C 160.015625 213.136719 159.472656 212.226562 158.972656 211.292969 C 158.472656 210.359375 158.019531 209.402344 157.613281 208.421875 C 157.210938 207.441406 156.851562 206.445312 156.546875 205.433594 C 156.238281 204.417969 155.980469 203.390625 155.773438 202.351562 C 155.566406 201.3125 155.414062 200.265625 155.308594 199.210938 C 155.203125 198.15625 155.152344 197.101562 155.152344 196.039062 C 155.152344 194.980469 155.203125 193.921875 155.308594 192.867188 C 155.414062 191.8125 155.566406 190.765625 155.773438 189.726562 C 155.980469 188.6875 156.238281 187.660156 156.546875 186.648438 C 156.851562 185.632812 157.210938 184.636719 157.613281 183.660156 C 158.019531 182.679688 158.472656 181.722656 158.972656 180.789062 C 159.472656 179.851562 160.015625 178.945312 160.605469 178.0625 C 161.191406 177.183594 161.824219 176.332031 162.496094 175.515625 C 163.167969 174.695312 163.878906 173.910156 164.628906 173.160156 C 165.375 172.410156 166.160156 171.703125 166.980469 171.027344 C 167.796875 170.355469 168.648438 169.726562 169.527344 169.136719 C 170.410156 168.546875 171.316406 168.003906 172.25 167.503906 C 173.1875 167.003906 174.140625 166.554688 175.121094 166.148438 C 176.101562 165.742188 177.097656 165.386719 178.109375 165.078125 C 179.125 164.769531 180.148438 164.511719 181.1875 164.304688 C 182.226562 164.097656 183.273438 163.945312 184.328125 163.839844 C 185.382812 163.738281 186.441406 163.683594 187.5 163.683594 C 188.558594 163.683594 189.617188 163.738281 190.671875 163.839844 C 191.726562 163.945312 192.773438 164.097656 193.8125 164.304688 C 194.851562 164.511719 195.875 164.769531 196.890625 165.078125 C 197.902344 165.386719 198.898438 165.742188 199.878906 166.148438 C 200.855469 166.554688 201.8125 167.003906 202.75 167.503906 C 203.683594 168.003906 204.589844 168.546875 205.472656 169.136719 C 206.351562 169.726562 207.203125 170.355469 208.019531 171.027344 C 208.839844 171.703125 209.625 172.410156 210.371094 173.160156 C 211.121094 173.910156 211.832031 174.695312 212.503906 175.515625 C 213.175781 176.332031 213.808594 177.183594 214.394531 178.0625 C 214.984375 178.945312 215.527344 179.851562 216.027344 180.789062 C 216.527344 181.722656 216.980469 182.679688 217.382812 183.660156 C 217.789062 184.636719 218.148438 185.632812 218.453125 186.648438 C 218.761719 187.660156 219.019531 188.6875 219.226562 189.726562 C 219.433594 190.765625 219.585938 191.8125 219.691406 192.867188 C 219.796875 193.921875 219.847656 194.980469 219.847656 196.039062 Z M 219.847656 196.039062 " fill-opacity="1" fill-rule="nonzero"/></svg>