<svg xmlns="http://www.w3.org/2000/svg" xmlns:xlink="http://www.w3.org/1999/xlink" width="500" zoomAndPan="magnify" viewBox="0 0 375 374.999991" height="500" preserveAspectRatio="xMidYMid meet" version="1.0"><defs><clipPath id="a478dace99"><path d="M 113 183 L 262 183 L 262 331.875 L 113 331.875 Z M 113 183 " clip-rule="nonzero"/></clipPath><clipPath id="cceb1ba1de"><path d="M 0 43.125 L 375 43.125 L 375 262 L 0 262 Z M 0 43.125 " clip-rule="nonzero"/></clipPath></defs><g clip-path="url(#a478dace99)"><path fill="#00ffd0" d="M 187.535156 331.863281 C 187.234375 331.863281 186.9375 331.859375 186.632812 331.855469 L 183.238281 331.816406 L 182.199219 311.566406 L 171.0625 309.28125 L 162.132812 327.484375 L 158.996094 326.183594 C 149.703125 322.335938 141.4375 316.738281 134.417969 309.546875 L 132.042969 307.117188 L 145.628906 292.0625 L 139.371094 282.574219 L 120.183594 289.132812 L 118.882812 285.992188 C 115.039062 276.710938 113.148438 266.90625 113.269531 256.851562 L 113.308594 253.453125 L 133.558594 252.414062 L 135.84375 241.277344 L 117.640625 232.351562 L 118.941406 229.210938 C 122.792969 219.917969 128.390625 211.648438 135.578125 204.632812 L 138.007812 202.257812 L 153.0625 215.84375 L 162.550781 209.585938 L 155.992188 190.398438 L 159.128906 189.097656 C 168.414062 185.253906 178.203125 183.371094 188.273438 183.484375 L 191.671875 183.527344 L 192.710938 203.773438 L 203.84375 206.058594 L 212.773438 187.855469 L 215.914062 189.15625 C 225.207031 193.007812 233.476562 198.605469 240.492188 205.792969 L 242.867188 208.226562 L 229.28125 223.28125 L 235.539062 232.765625 L 254.726562 226.210938 L 256.027344 229.347656 C 259.871094 238.628906 261.761719 248.433594 261.640625 258.492188 L 261.601562 261.890625 L 241.351562 262.929688 L 239.066406 274.0625 L 257.269531 282.992188 L 255.96875 286.132812 C 252.121094 295.421875 246.523438 303.691406 239.332031 310.710938 L 236.902344 313.082031 L 221.847656 299.5 L 212.359375 305.757812 L 218.917969 324.945312 L 215.777344 326.246094 C 206.773438 329.972656 197.277344 331.863281 187.535156 331.863281 Z M 167.03125 301.0625 L 189.140625 305.601562 L 190.113281 324.570312 C 196.867188 324.3125 203.476562 323.042969 209.839844 320.773438 L 203.695312 302.796875 L 222.539062 290.371094 L 236.644531 303.097656 C 241.230469 298.140625 245.003906 292.566406 247.902344 286.460938 L 230.847656 278.09375 L 235.382812 255.984375 L 254.355469 255.011719 C 254.097656 248.253906 252.824219 241.644531 250.558594 235.285156 L 232.582031 241.429688 L 220.152344 222.585938 L 232.878906 208.480469 C 227.925781 203.894531 222.351562 200.121094 216.246094 197.222656 L 207.878906 214.277344 L 185.769531 209.742188 L 184.792969 190.769531 C 178.039062 191.027344 171.429688 192.300781 165.070312 194.566406 L 171.214844 212.542969 L 152.371094 224.972656 L 138.265625 212.246094 C 133.675781 217.199219 129.902344 222.773438 127.007812 228.878906 L 144.0625 237.246094 L 139.527344 259.355469 L 120.554688 260.332031 C 120.8125 267.085938 122.085938 273.695312 124.351562 280.054688 L 142.328125 273.910156 L 154.757812 292.753906 L 142.03125 306.859375 C 146.984375 311.449219 152.558594 315.21875 158.664062 318.117188 Z M 167.03125 301.0625 " fill-opacity="1" fill-rule="nonzero"/></g><path fill="#00ffd0" d="M 187.390625 288.796875 C 181.25 288.796875 175.253906 286.976562 170.050781 283.464844 C 163.160156 278.816406 158.492188 271.761719 156.90625 263.605469 C 155.320312 255.445312 157.007812 247.15625 161.660156 240.265625 C 166.308594 233.375 173.363281 228.707031 181.519531 227.121094 C 195.972656 224.320312 210.546875 232.132812 216.1875 245.703125 C 216.988281 247.636719 217.601562 249.664062 218.003906 251.734375 C 218.402344 253.808594 218.597656 255.917969 218.578125 258.011719 C 218.429688 272.707031 207.835938 285.410156 193.386719 288.21875 C 191.390625 288.605469 189.382812 288.796875 187.390625 288.796875 Z M 187.425781 233.792969 C 185.929688 233.792969 184.414062 233.9375 182.902344 234.230469 C 169.976562 236.738281 161.503906 249.296875 164.015625 262.222656 C 165.230469 268.484375 168.8125 273.898438 174.097656 277.464844 C 179.386719 281.03125 185.742188 282.324219 192.007812 281.109375 C 203.09375 278.957031 211.222656 269.210938 211.335938 257.9375 C 211.351562 256.332031 211.203125 254.710938 210.894531 253.117188 C 210.585938 251.523438 210.117188 249.964844 209.5 248.480469 C 205.765625 239.492188 196.914062 233.792969 187.425781 233.792969 Z M 187.425781 233.792969 " fill-opacity="1" fill-rule="nonzero"/><path fill="#00ffd0" d="M 300.789062 222.292969 C 300.621094 222.292969 300.453125 222.289062 300.285156 222.289062 L 296.886719 222.25 L 296.3125 211.097656 L 292.875 210.390625 L 287.957031 220.417969 L 284.816406 219.113281 C 279.613281 216.957031 274.984375 213.824219 271.054688 209.800781 L 268.683594 207.367188 L 276.164062 199.078125 L 274.230469 196.148438 L 263.664062 199.757812 L 262.363281 196.621094 C 260.210938 191.425781 259.152344 185.933594 259.21875 180.304688 L 259.261719 176.90625 L 270.414062 176.332031 L 271.117188 172.894531 L 261.09375 167.972656 L 262.394531 164.835938 C 264.546875 159.632812 267.683594 155.003906 271.707031 151.074219 L 274.136719 148.703125 L 282.429688 156.183594 L 285.359375 154.25 L 281.746094 143.683594 L 284.886719 142.382812 C 290.085938 140.230469 295.582031 139.171875 301.203125 139.238281 L 304.601562 139.28125 L 305.171875 150.433594 L 308.613281 151.136719 L 313.53125 141.113281 L 316.671875 142.414062 C 321.875 144.570312 326.503906 147.703125 330.429688 151.726562 L 332.804688 154.160156 L 325.324219 162.449219 L 327.257812 165.382812 L 337.824219 161.769531 L 339.125 164.910156 C 341.277344 170.105469 342.335938 175.59375 342.269531 181.222656 L 342.226562 184.621094 L 331.074219 185.195312 L 330.367188 188.636719 L 340.394531 193.554688 L 339.09375 196.695312 C 336.9375 201.894531 333.804688 206.523438 329.777344 210.453125 L 327.347656 212.824219 L 319.054688 205.34375 L 316.125 207.277344 L 319.738281 217.847656 L 316.597656 219.148438 C 311.558594 221.234375 306.242188 222.292969 300.789062 222.292969 Z M 288.839844 202.171875 L 303.257812 205.128906 L 303.761719 214.921875 C 306.097656 214.71875 308.394531 214.277344 310.636719 213.597656 L 307.464844 204.320312 L 319.75 196.214844 L 327.03125 202.785156 C 328.539062 200.992188 329.847656 199.054688 330.953125 196.988281 L 322.152344 192.667969 L 325.109375 178.253906 L 334.902344 177.746094 C 334.699219 175.414062 334.257812 173.117188 333.578125 170.875 L 324.296875 174.046875 L 316.195312 161.757812 L 322.765625 154.480469 C 320.972656 152.972656 319.035156 151.660156 316.96875 150.554688 L 312.648438 159.359375 L 298.230469 156.402344 L 297.730469 146.605469 C 295.394531 146.808594 293.097656 147.253906 290.855469 147.929688 L 294.027344 157.210938 L 281.738281 165.3125 L 274.457031 158.742188 C 272.953125 160.535156 271.640625 162.472656 270.535156 164.542969 L 279.339844 168.859375 L 276.382812 183.277344 L 266.585938 183.78125 C 266.789062 186.117188 267.234375 188.414062 267.910156 190.65625 L 277.191406 187.484375 L 285.292969 199.769531 L 278.722656 207.050781 C 280.519531 208.558594 282.453125 209.867188 284.523438 210.976562 Z M 288.839844 202.171875 " fill-opacity="1" fill-rule="nonzero"/><path fill="#00ffd0" d="M 112.035156 176.605469 C 111.90625 176.605469 111.773438 176.605469 111.640625 176.601562 L 108.242188 176.5625 L 107.792969 167.828125 L 106.398438 167.542969 L 102.546875 175.394531 L 99.40625 174.09375 C 95.292969 172.386719 91.628906 169.910156 88.523438 166.726562 L 86.152344 164.292969 L 92.007812 157.800781 L 91.226562 156.613281 L 82.949219 159.441406 L 81.648438 156.300781 C 79.945312 152.191406 79.109375 147.851562 79.164062 143.398438 L 79.203125 140 L 87.9375 139.550781 L 88.222656 138.15625 L 80.371094 134.304688 L 81.671875 131.164062 C 83.378906 127.050781 85.855469 123.386719 89.039062 120.28125 L 91.472656 117.90625 L 97.964844 123.765625 L 99.152344 122.984375 L 96.324219 114.707031 L 99.460938 113.40625 C 103.574219 111.703125 107.917969 110.871094 112.367188 110.921875 L 115.765625 110.960938 L 116.214844 119.695312 L 117.609375 119.984375 L 121.460938 112.128906 L 124.601562 113.429688 C 128.714844 115.136719 132.375 117.613281 135.484375 120.796875 L 137.859375 123.230469 L 132 129.722656 L 132.78125 130.914062 L 141.058594 128.082031 L 142.359375 131.222656 C 144.0625 135.332031 144.898438 139.675781 144.84375 144.128906 L 144.804688 147.527344 L 136.070312 147.976562 L 135.785156 149.371094 L 143.640625 153.222656 L 142.335938 156.359375 C 140.632812 160.476562 138.152344 164.136719 134.96875 167.246094 L 132.539062 169.617188 L 126.046875 163.757812 L 124.855469 164.542969 L 127.6875 172.816406 L 124.546875 174.117188 C 120.558594 175.769531 116.351562 176.605469 112.035156 176.605469 Z M 102.363281 159.320312 L 114.738281 161.863281 L 115.113281 169.179688 C 116.277344 169.039062 117.429688 168.816406 118.5625 168.515625 L 116.191406 161.582031 L 126.734375 154.628906 L 132.175781 159.539062 C 132.898438 158.613281 133.554688 157.644531 134.144531 156.628906 L 127.5625 153.402344 L 130.101562 141.03125 L 137.421875 140.65625 C 137.28125 139.488281 137.058594 138.339844 136.757812 137.203125 L 129.824219 139.574219 L 122.871094 129.03125 L 127.777344 123.589844 C 126.855469 122.867188 125.886719 122.210938 124.871094 121.621094 L 121.644531 128.203125 L 109.269531 125.664062 L 108.894531 118.34375 C 107.730469 118.484375 106.578125 118.707031 105.445312 119.007812 L 107.816406 125.941406 L 97.273438 132.894531 L 91.832031 127.984375 C 91.109375 128.910156 90.453125 129.878906 89.863281 130.894531 L 96.441406 134.121094 L 93.90625 146.492188 L 86.585938 146.867188 C 86.726562 148.035156 86.949219 149.183594 87.25 150.320312 L 94.183594 147.949219 L 101.140625 158.492188 L 96.230469 163.933594 C 97.152344 164.65625 98.121094 165.3125 99.136719 165.902344 Z M 102.363281 159.320312 " fill-opacity="1" fill-rule="nonzero"/><g clip-path="url(#cceb1ba1de)"><path fill="#00ffd0" d="M 294.707031 261.289062 L 260.117188 261.257812 L 260.125 254.015625 L 294.710938 254.050781 C 334.953125 254.050781 367.695312 221.308594 367.695312 181.0625 C 367.695312 140.816406 334.953125 108.070312 294.707031 108.070312 C 291.675781 108.070312 288.476562 108.320312 284.636719 108.863281 L 281.832031 109.257812 L 280.773438 106.632812 C 267 72.460938 234.316406 50.382812 197.507812 50.382812 C 167.453125 50.382812 139.527344 65.335938 122.800781 90.390625 L 121.53125 92.292969 L 119.265625 91.960938 C 116.234375 91.515625 113.675781 91.308594 111.21875 91.308594 C 97.398438 91.308594 84.191406 96.449219 74.023438 105.785156 C 63.921875 115.066406 57.675781 127.671875 56.4375 141.285156 L 56.183594 144.082031 L 53.410156 144.53125 C 26.644531 148.855469 7.214844 171.671875 7.214844 198.785156 C 7.214844 229.125 31.898438 253.808594 62.242188 253.808594 L 116.890625 253.863281 L 116.882812 261.105469 L 62.238281 261.050781 C 27.90625 261.050781 -0.0273438 233.117188 -0.0273438 198.785156 C -0.0273438 183.910156 5.3125 169.511719 15.011719 158.253906 C 23.988281 147.828125 36.164062 140.664062 49.539062 137.882812 C 51.488281 123.53125 58.378906 110.324219 69.128906 100.453125 C 80.632812 89.886719 95.582031 84.066406 111.21875 84.066406 C 113.390625 84.066406 115.609375 84.207031 118.058594 84.496094 C 136.257812 58.554688 165.785156 43.140625 197.507812 43.140625 C 236.347656 43.140625 270.941406 65.886719 286.402344 101.335938 C 289.414062 100.992188 292.101562 100.828125 294.707031 100.828125 C 338.945312 100.828125 374.933594 136.824219 374.933594 181.0625 C 374.9375 225.300781 338.945312 261.289062 294.707031 261.289062 Z M 294.707031 261.289062 " fill-opacity="1" fill-rule="nonzero"/></g></svg>